<svg width="24" height="24" viewBox="0 0 24 24" fill="none" xmlns="http://www.w3.org/2000/svg">
<path d="M17.5034 0H6.49657C2.9143 0 0 2.9143 0 6.49657V17.5036C0 21.0857 2.9143 24 6.49657 24H17.5036C21.0857 24 24 21.0857 24 17.5036V6.49657C24 2.9143 21.0857 0 17.5034 0V0ZM12 18.5623C8.38145 18.5623 5.43767 15.6185 5.43767 12C5.43767 8.38145 8.38145 5.43767 12 5.43767C15.6185 5.43767 18.5623 8.38145 18.5623 12C18.5623 15.6185 15.6185 18.5623 12 18.5623ZM18.7192 6.98528C17.6499 6.98528 16.7801 6.11553 16.7801 5.04619C16.7801 3.97686 17.6499 3.10693 18.7192 3.10693C19.7885 3.10693 20.6585 3.97686 20.6585 5.04619C20.6585 6.11553 19.7885 6.98528 18.7192 6.98528Z" fill="#CED4DD"/>
<path d="M11.9996 6.84424C9.15704 6.84424 6.84424 9.15686 6.84424 11.9996C6.84424 14.8421 9.15704 17.1549 11.9996 17.1549C14.8423 17.1549 17.1549 14.8421 17.1549 11.9996C17.1549 9.15686 14.8423 6.84424 11.9996 6.84424Z" fill="#CED4DD"/>
<path d="M18.7191 4.51416C18.4258 4.51416 18.187 4.75293 18.187 5.04627C18.187 5.3396 18.4258 5.57837 18.7191 5.57837C19.0126 5.57837 19.2514 5.33978 19.2514 5.04627C19.2514 4.75275 19.0126 4.51416 18.7191 4.51416Z" fill="#CED4DD"/>
</svg>
