<svg width="24" height="24" viewBox="0 0 24 24" fill="none" xmlns="http://www.w3.org/2000/svg">
<g clip-path="url(#clip0)">
<path fill-rule="evenodd" clip-rule="evenodd" d="M21.3903 4.12433C22.4182 4.40118 23.2288 5.2116 23.5055 6.23973C24.0197 8.11766 23.9999 12.0321 23.9999 12.0321C23.9999 12.0321 23.9999 15.9265 23.5057 17.8046C23.2288 18.8326 22.4184 19.6432 21.3903 19.9199C19.5122 20.4142 12 20.4142 12 20.4142C12 20.4142 4.50731 20.4142 2.60961 19.9003C1.58148 19.6234 0.771054 18.8128 0.4942 17.7849C0 15.9265 0 12.0123 0 12.0123C0 12.0123 0 8.11766 0.4942 6.23973C0.770871 5.21179 1.60125 4.38141 2.60943 4.10473C4.48753 3.61035 11.9998 3.61035 11.9998 3.61035C11.9998 3.61035 19.5122 3.61035 21.3903 4.12433ZM15.854 12.0119L9.60698 15.6099V8.41383L15.854 12.0119Z" fill="#CED4DD"/>
</g>
<defs>
<clipPath id="clip0">
<rect width="24" height="24" fill="white"/>
</clipPath>
</defs>
</svg>
