<svg width="44" height="44" viewBox="0 0 44 44" fill="none" xmlns="http://www.w3.org/2000/svg">
<path fill-rule="evenodd" clip-rule="evenodd" d="M31.3172 16.768C31.9721 17.2754 32.0916 18.2176 31.5842 18.8725L26.2143 25.8031C25.9696 26.1189 25.609 26.324 25.2124 26.373C24.8159 26.422 24.4162 26.3107 24.102 26.0639L19.0341 22.083L14.4706 28.0141C13.9655 28.6707 13.0237 28.7934 12.3671 28.2883C11.7105 27.7831 11.5878 26.8413 12.093 26.1847L17.5804 19.0528C17.8246 18.7354 18.1855 18.5288 18.5829 18.4791C18.9802 18.4293 19.3809 18.5405 19.6958 18.7879L24.7677 22.772L29.2128 17.035C29.7202 16.3802 30.6624 16.2606 31.3172 16.768Z" fill="#DA554A"/>
<path fill-rule="evenodd" clip-rule="evenodd" d="M36.6583 5.67645C35.5405 5.67645 34.6343 6.58264 34.6343 7.70048C34.6343 8.81832 35.5405 9.72451 36.6583 9.72451C37.7761 9.72451 38.6823 8.81832 38.6823 7.70048C38.6823 6.58264 37.7761 5.67645 36.6583 5.67645ZM31.6343 7.70048C31.6343 4.92579 33.8836 2.67645 36.6583 2.67645C39.433 2.67645 41.6823 4.92579 41.6823 7.70048C41.6823 10.4752 39.433 12.7245 36.6583 12.7245C33.8836 12.7245 31.6343 10.4752 31.6343 7.70048Z" fill="#DA554A"/>
<path fill-rule="evenodd" clip-rule="evenodd" d="M6.39454 7.34562C8.25369 5.34016 10.9043 4.22028 14.0371 4.22028H27.3613C28.1897 4.22028 28.8613 4.89185 28.8613 5.72028C28.8613 6.5487 28.1897 7.22028 27.3613 7.22028H14.0371C11.6489 7.22028 9.82736 8.05539 8.59459 9.38517C7.34994 10.7278 6.59277 12.6985 6.59277 15.1512V29.9689C6.59277 32.4292 7.33753 34.3939 8.57091 35.7282C9.79108 37.0483 11.6093 37.8831 14.0371 37.8831H29.8113C32.2015 37.8831 34.0231 37.0508 35.2551 35.7253C36.4986 34.3872 37.2556 32.4215 37.2556 29.9689V17.0643C37.2556 16.2359 37.9272 15.5643 38.7556 15.5643C39.5841 15.5643 40.2556 16.2359 40.2556 17.0643V29.9689C40.2556 33.0374 39.301 35.7787 37.4526 37.7676C35.5926 39.7689 32.9421 40.8831 29.8113 40.8831H14.0371C10.8767 40.8831 8.22284 39.7714 6.36788 37.7646C4.52613 35.7721 3.59277 33.0297 3.59277 29.9689V15.1512C3.59277 12.083 4.54728 9.33825 6.39454 7.34562Z" fill="#DA554A"/>
</svg>
