<svg width="44" height="44" viewBox="0 0 44 44" fill="none" xmlns="http://www.w3.org/2000/svg">
<path fill-rule="evenodd" clip-rule="evenodd" d="M29.704 1.71005C30.2423 1.17176 31.115 1.17176 31.6533 1.71005L38.5963 8.653C39.1346 9.19129 39.1346 10.064 38.5963 10.6023L31.6533 17.5453C31.115 18.0836 30.2423 18.0836 29.704 17.5453C29.1657 17.007 29.1657 16.1342 29.704 15.5959L35.6723 9.62766L29.704 3.65937C29.1657 3.12108 29.1657 2.24834 29.704 1.71005Z" fill="#DA554A"/>
<path fill-rule="evenodd" clip-rule="evenodd" d="M13.3213 11.0061C11.8455 11.0061 10.4301 11.5924 9.38658 12.636C8.34302 13.6795 7.75676 15.0949 7.75676 16.5707V20.0422C7.75676 20.8034 7.13964 21.4206 6.37838 21.4206C5.61712 21.4206 5 20.8034 5 20.0422V16.5707C5 14.3638 5.87671 12.2472 7.43726 10.6866C8.99781 9.1261 11.1144 8.24939 13.3213 8.24939L37.6216 8.24939C38.3829 8.24939 39 8.86651 39 9.62777C39 10.389 38.3829 11.0061 37.6216 11.0061L13.3213 11.0061Z" fill="#DA554A"/>
<path fill-rule="evenodd" clip-rule="evenodd" d="M14.296 26.0102C14.8343 26.5485 14.8343 27.4213 14.296 27.9595L8.3277 33.9278L14.296 39.8961C14.8343 40.4344 14.8343 41.3071 14.296 41.8454C13.7577 42.3837 12.885 42.3837 12.3467 41.8454L5.40372 34.9025C4.86543 34.3642 4.86543 33.4915 5.40372 32.9532L12.3467 26.0102C12.885 25.4719 13.7577 25.4719 14.296 26.0102Z" fill="#DA554A"/>
<path fill-rule="evenodd" clip-rule="evenodd" d="M37.6216 22.1353C38.3829 22.1353 39 22.7524 39 23.5136V26.9851C39 29.1921 38.1233 31.3086 36.5627 32.8692C35.0022 34.4297 32.8856 35.3064 30.6787 35.3064H6.37838C5.61712 35.3064 5 34.6893 5 33.928C5 33.1668 5.61712 32.5497 6.37838 32.5497H30.6787C32.1545 32.5497 33.5699 31.9634 34.6134 30.9198C35.657 29.8763 36.2432 28.4609 36.2432 26.9851V23.5136C36.2432 22.7524 36.8604 22.1353 37.6216 22.1353Z" fill="#DA554A"/>
</svg>
