<svg width="44" height="44" viewBox="0 0 44 44" fill="none" xmlns="http://www.w3.org/2000/svg">
<path fill-rule="evenodd" clip-rule="evenodd" d="M16.2217 21.0757C17.0501 21.0757 17.7217 21.7473 17.7217 22.5757V29.4415C17.7217 30.2699 17.0501 30.9415 16.2217 30.9415C15.3933 30.9415 14.7217 30.2699 14.7217 29.4415L14.7217 22.5757C14.7217 21.7473 15.3933 21.0757 16.2217 21.0757Z" fill="#DA554A"/>
<path fill-rule="evenodd" clip-rule="evenodd" d="M11.2192 26.009C11.2192 25.1806 11.8908 24.509 12.7192 24.509H19.7246C20.5531 24.509 21.2246 25.1806 21.2246 26.009C21.2246 26.8375 20.5531 27.509 19.7246 27.509H12.7192C11.8908 27.509 11.2192 26.8375 11.2192 26.009Z" fill="#DA554A"/>
<path fill-rule="evenodd" clip-rule="evenodd" d="M26.4746 22.7847C26.4746 21.9562 27.1462 21.2847 27.9746 21.2847H28.1708C28.9992 21.2847 29.6708 21.9562 29.6708 22.7847C29.6708 23.6131 28.9992 24.2847 28.1708 24.2847H27.9746C27.1462 24.2847 26.4746 23.6131 26.4746 22.7847Z" fill="#DA554A"/>
<path fill-rule="evenodd" clip-rule="evenodd" d="M29.7993 29.3382C29.7993 28.5098 30.4709 27.8382 31.2993 27.8382H31.4955C32.324 27.8382 32.9955 28.5098 32.9955 29.3382C32.9955 30.1666 32.324 30.8382 31.4955 30.8382H31.2993C30.4709 30.8382 29.7993 30.1666 29.7993 29.3382Z" fill="#DA554A"/>
<path fill-rule="evenodd" clip-rule="evenodd" d="M17.3069 7.62475C15.1219 7.62475 13.2988 5.88098 13.2988 3.66669L16.2988 3.66669C16.2988 4.1675 16.7215 4.62475 17.3069 4.62475H19.2491C22.1822 4.6352 24.6077 6.97107 24.6214 9.91627L24.6214 9.92323L24.6214 11.1608C24.6214 11.9893 23.9498 12.6608 23.1214 12.6608C22.293 12.6608 21.6214 11.9893 21.6214 11.1608V9.92722C21.614 8.68564 20.5794 7.63076 19.2408 7.62475L17.3069 7.62475Z" fill="#DA554A"/>
<path fill-rule="evenodd" clip-rule="evenodd" d="M30.0939 13.2521C24.6332 13.1629 19.2375 13.161 13.9088 13.2521L13.8832 13.2523C8.77726 13.2523 5.1665 16.8226 5.1665 21.7464L5.1665 30.2706C5.1665 35.1945 8.77726 38.7647 13.8832 38.7647L13.9084 38.765C19.2092 38.8542 24.6008 38.858 30.093 38.765L30.1184 38.7647C35.224 38.7647 38.8332 35.1949 38.8332 30.2706V21.7464C38.8332 16.8239 35.2238 13.2523 30.1184 13.2523L30.0939 13.2521ZM30.131 10.2523C24.6471 10.1629 19.2261 10.1609 13.87 10.2523C7.17868 10.2587 2.1665 15.106 2.1665 21.7464L2.1665 30.2706C2.1665 36.9112 7.17882 41.7585 13.8703 41.7647C19.196 41.8542 24.6131 41.858 30.1314 41.7647C36.8232 41.7585 41.8332 36.9108 41.8332 30.2706V21.7464C41.8332 15.1082 36.8232 10.2584 30.131 10.2523Z" fill="#DA554A"/>
</svg>
