<svg width="44" height="44" viewBox="0 0 44 44" fill="none" xmlns="http://www.w3.org/2000/svg">
<g clip-path="url(#clip0)">
<path d="M42.1922 9.17853L7.78957 9.17853L7.27819 3.48155C7.19455 2.54991 6.41375 1.83606 5.47841 1.83606L1.80701 1.83606C0.809023 1.83606 0 2.64508 0 3.64307C0 4.64105 0.809023 5.45007 1.80701 5.45007H3.82638C4.92994 17.7448 2.0778 -14.0325 5.90469 28.6046C6.05218 30.2734 6.95388 32.0843 8.50721 33.3148C5.70661 36.8913 8.2655 42.1639 12.8211 42.1639C16.6023 42.1639 19.2691 38.3927 17.9725 34.8211L27.8625 34.8211C26.5675 38.3882 29.2286 42.1639 33.0138 42.1639C36.0346 42.1639 38.4922 39.7063 38.4922 36.6855C38.4922 33.6647 36.0346 31.207 33.0138 31.207H12.8334C11.4607 31.207 10.2646 30.3789 9.74828 29.1724L38.6267 27.4752C39.415 27.4289 40.0821 26.8757 40.2737 26.1096L43.9454 11.4238C44.23 10.285 43.368 9.17853 42.1922 9.17853ZM12.8211 38.5499C11.7932 38.5499 10.9568 37.7135 10.9568 36.6855C10.9568 35.6574 11.7932 34.8211 12.8211 34.8211C13.8492 34.8211 14.6855 35.6574 14.6855 36.6855C14.6855 37.7135 13.8492 38.5499 12.8211 38.5499ZM33.0137 38.5499C31.9857 38.5499 31.1493 37.7135 31.1493 36.6855C31.1493 35.6574 31.9857 34.8211 33.0137 34.8211C34.0418 34.8211 34.8781 35.6574 34.8781 36.6855C34.8781 37.7135 34.0418 38.5499 33.0137 38.5499ZM37.0895 23.9453L9.26185 25.5806L8.11397 12.7925L39.8779 12.7925L37.0895 23.9453Z" fill="#DA554A"/>
</g>
<defs>
<clipPath id="clip0">
<rect width="44" height="44" fill="white"/>
</clipPath>
</defs>
</svg>
