<svg width="39" height="36" viewBox="0 0 39 36" fill="none" xmlns="http://www.w3.org/2000/svg">
<path fill-rule="evenodd" clip-rule="evenodd" d="M29.2496 11.0242L36.6715 11.0242C37.5 11.0242 38.1715 11.6957 38.1715 12.5242C38.1715 13.3526 37.5 14.0242 36.6715 14.0242H29.2502C27.3516 14.0255 25.8142 15.5628 25.814 17.4577C25.8153 19.3542 27.3526 20.891 29.2506 20.8922H36.6715C37.5 20.8922 38.1715 21.5637 38.1715 22.3922C38.1715 23.2206 37.5 23.8922 36.6715 23.8922H29.2496C25.6974 23.89 22.8161 21.0126 22.814 17.4591C22.814 13.904 25.6983 11.0263 29.2496 11.0242Z" fill="#DA554A"/>
<path fill-rule="evenodd" clip-rule="evenodd" d="M28.0176 17.3453C28.0176 16.5169 28.6892 15.8453 29.5176 15.8453H30.089C30.9174 15.8453 31.589 16.5169 31.589 17.3453C31.589 18.1738 30.9174 18.8453 30.089 18.8453H29.5176C28.6892 18.8453 28.0176 18.1738 28.0176 17.3453Z" fill="#DA554A"/>
<path fill-rule="evenodd" clip-rule="evenodd" d="M11.2042 3C6.71936 3 3.0835 6.63586 3.0835 11.1207V24.2786C3.0835 28.7635 6.71936 32.3993 11.2042 32.3993H27.0505C31.5354 32.3993 35.1712 28.7635 35.1712 24.2786V11.1207C35.1712 6.63586 31.5354 3 27.0505 3H11.2042ZM0.0834961 11.1207C0.0834961 4.97901 5.0625 0 11.2042 0H27.0505C33.1922 0 38.1712 4.97901 38.1712 11.1207V24.2786C38.1712 30.4203 33.1922 35.3993 27.0505 35.3993H11.2042C5.0625 35.3993 0.0834961 30.4203 0.0834961 24.2786V11.1207Z" fill="#DA554A"/>
<path fill-rule="evenodd" clip-rule="evenodd" d="M8.39893 9.82001C8.39893 8.99158 9.0705 8.32001 9.89893 8.32001H19.797C20.6254 8.32001 21.297 8.99158 21.297 9.82001C21.297 10.6484 20.6254 11.32 19.797 11.32H9.89893C9.0705 11.32 8.39893 10.6484 8.39893 9.82001Z" fill="#DA554A"/>
</svg>
