<svg width="56" height="56" viewBox="0 0 56 56" fill="none" xmlns="http://www.w3.org/2000/svg">
<path d="M23.4552 27.669L23.0915 27.3029C22.8161 27.0279 22.343 27.2227 22.343 27.6126V32.8414C22.343 33.0828 22.5411 33.2793 22.7832 33.2793H28.0137C28.4037 33.2793 28.6 32.807 28.3227 32.5324C28.1517 32.3614 28.1517 32.0845 28.3227 31.9139L33.8858 26.3341C34.0572 26.1641 34.0572 25.8873 33.8858 25.7156L33.379 25.2107C33.1036 24.9356 33.2999 24.4632 33.6887 24.4632H38.9161C39.1578 24.4632 39.3556 24.6595 39.3556 24.9012V30.1295C39.3556 30.5194 38.8816 30.7146 38.6056 30.4392L38.2532 30.087C38.0811 29.9112 37.8043 29.9112 37.6358 30.087L28.2564 39.4611C28.0861 39.6318 27.8097 39.6318 27.6372 39.4611L16.1621 27.987C15.9896 27.8145 15.9896 27.5373 16.1621 27.3659L32.0475 11.4825C32.2182 11.3115 32.2182 11.0326 32.0475 10.8623L28.3122 7.12768C28.1412 6.95744 27.8643 6.95744 27.6925 7.12768L7.12769 27.6915C6.95744 27.8625 6.95744 28.1415 7.12769 28.3117L27.6904 48.8725C27.8614 49.0425 28.1406 49.0425 28.3108 48.8725L48.8725 28.3117C49.0425 28.1407 49.0425 27.8633 48.8725 27.6929L36.7753 15.5965C36.6061 15.4263 36.3278 15.4263 36.1564 15.5965L24.0777 27.6692C23.9052 27.8417 23.6277 27.8417 23.4552 27.6692V27.669Z" fill="#DE5959"/>
</svg>
