<svg width="47" height="29" viewBox="0 0 47 29" fill="none" xmlns="http://www.w3.org/2000/svg">
<path d="M40.7231 0.896484C40.2095 6.50358 34.6566 5.7998 34.6566 5.7998V0.896484H29.0898V5.7998H17.0725V0.896484H11.6214V5.78437C6.14569 6.11774 5.78629 0.999891 5.78629 0.999891H0.310547V1.22522C0.310375 3.81944 1.32184 6.31134 3.12976 8.17077C4.93768 10.0302 7.39935 11.1104 9.99105 11.1816L11.5705 11.2248V18.2086C11.5703 19.6122 11.8465 21.0021 12.3832 22.2989C12.9199 23.5957 13.7067 24.774 14.6986 25.7665C15.6906 26.759 16.8682 27.5463 18.1642 28.0833C19.4602 28.6204 20.8493 28.8967 22.2521 28.8965H23.9874C26.8177 28.8879 29.5296 27.7591 31.5309 25.7566C33.5323 23.7541 34.6604 21.0406 34.6689 18.2086V11.1862H36.3147C38.9292 11.1862 41.4366 10.147 43.2853 8.29718C45.134 6.44737 46.1726 3.93848 46.1726 1.32246V0.896484L40.7231 0.896484ZM29.1161 17.6097C29.1288 18.4058 28.9831 19.1964 28.6875 19.9355C28.3919 20.6746 27.9523 21.3475 27.3942 21.9149C26.8361 22.4824 26.1708 22.933 25.4369 23.2406C24.7031 23.5482 23.9154 23.7066 23.1197 23.7066C22.3241 23.7066 21.5364 23.5482 20.8025 23.2406C20.0687 22.933 19.4033 22.4824 18.8453 21.9149C18.2872 21.3475 17.8475 20.6746 17.5519 19.9355C17.2563 19.1964 17.1106 18.4058 17.1234 17.6097V11.0704H29.1161V17.6097Z" fill="#B7C6D8"/>
</svg>
