<svg width="40" height="40" viewBox="0 0 40 40" fill="none" xmlns="http://www.w3.org/2000/svg">
<path fill-rule="evenodd" clip-rule="evenodd" d="M7.44848 6.52515C6.83018 3.34015 9.30337 0.400146 12.5185 0.400146C15.3627 0.400146 17.7122 2.72765 17.7122 5.54515V11.9151C18.4542 11.9151 19.1961 11.7926 19.9381 11.7926C20.68 11.7926 21.2983 11.7926 22.0403 11.9151V5.54515C22.0403 2.72765 24.3898 0.400146 27.234 0.400146C30.4491 0.400146 32.9223 3.34015 32.4277 6.52515L31.0674 13.9976C35.8901 16.0801 39.5999 19.7551 39.5999 24.2876V27.1051C39.5999 30.9026 37.1267 34.0876 33.5406 36.1701C29.9545 38.3751 25.2554 39.6001 19.9381 39.6001C14.6207 39.6001 9.92167 38.3751 6.33555 36.1701C2.87309 34.0876 0.399902 30.9026 0.399902 27.1051V24.2876C0.399902 19.7551 3.98602 16.0801 8.80873 13.9976L7.44848 6.52515ZM29.2125 14.9776L30.8201 6.15765C31.1911 3.95265 29.5835 1.87015 27.234 1.87015C25.2554 1.87015 23.6478 3.46265 23.6478 5.42265V13.5076C23.1532 13.3851 22.5349 13.3851 22.0403 13.3851C21.2983 13.3851 20.68 13.2626 19.9381 13.2626C19.1961 13.2626 18.4542 13.2626 17.7122 13.3851C17.2176 13.3851 16.5993 13.5076 16.1046 13.5076V5.54515C16.1046 3.58515 14.4971 1.99265 12.5185 1.99265C10.2926 1.99265 8.56142 4.07515 9.05605 6.28015L10.6636 15.1001C5.46993 17.0601 2.00747 20.4901 2.00747 24.4101V27.2276C2.00747 33.2301 10.0453 38.1301 19.9381 38.1301C29.8308 38.1301 37.8687 33.2301 37.8687 27.2276V24.4101C37.9923 20.3676 34.5299 16.9376 29.2125 14.9776Z" fill="#B7C6D8"/>
<path d="M37.9921 27.1051C37.9921 33.1076 29.9542 38.0076 20.0615 38.0076C10.1687 38.0076 2.13086 33.1076 2.13086 27.1051V24.2876H38.1157V27.1051H37.9921Z" fill="white"/>
<path fill-rule="evenodd" clip-rule="evenodd" d="M9.05578 6.28018C8.56114 4.07518 10.2924 1.99268 12.5182 1.99268C14.4968 1.99268 16.1044 3.58518 16.1044 5.54518V13.6302C17.341 13.5077 18.5775 13.3852 19.9378 13.3852C21.1744 13.3852 22.411 13.5077 23.6476 13.6302V5.54518C23.6476 3.58518 25.2552 1.99268 27.2337 1.99268C29.4596 1.99268 31.1908 4.07518 30.8198 6.28018L29.2122 15.1002C34.4059 17.0602 37.9921 20.4902 37.9921 24.4102C37.9921 30.4127 29.9542 35.3127 20.0615 35.3127C10.1687 35.3127 2.13086 30.4127 2.13086 24.4102C2.13086 20.4902 5.59332 17.0602 10.787 15.1002L9.05578 6.28018Z" fill="#B7C6D8"/>
<path d="M14.9918 23.5525C14.9918 25.145 14.1262 26.4925 13.0132 26.4925C11.9003 26.4925 11.0347 25.145 11.0347 23.5525C11.0347 21.96 11.9003 20.6125 13.0132 20.6125C14.1262 20.6125 14.9918 21.96 14.9918 23.5525Z" fill="white"/>
<path d="M28.7174 23.5525C28.7174 25.145 27.8517 26.4925 26.7388 26.4925C25.6259 26.4925 24.7603 25.145 24.7603 23.5525C24.7603 21.96 25.6259 20.6125 26.7388 20.6125C27.8517 20.6125 28.7174 21.96 28.7174 23.5525Z" fill="white"/>
</svg>
