<svg width="56" height="56" viewBox="0 0 56 56" fill="none" xmlns="http://www.w3.org/2000/svg">
<path fill-rule="evenodd" clip-rule="evenodd" d="M50.1768 23.9065C50.1499 25.7354 49.9635 27.5585 49.6198 29.355C47.2095 41.8865 40.018 48.1523 28.0453 48.1523H20.4524L20.4733 48.0621L22.3039 39.4218H27.534C34.0221 39.4218 37.9517 35.7328 39.3229 28.3548C39.4196 27.8827 39.4994 27.4068 39.5608 26.9243L49.9689 20.9175C50.1069 21.9078 50.1763 22.9066 50.1768 23.9065ZM46.3653 13.0343L37.032 18.4227C35.4248 17.476 33.5744 17.0235 31.7116 17.1217H16.6514L16.6971 16.9046L18.478 8.55727H34.1045C36.1031 8.53297 38.0954 8.78509 40.025 9.30649C42.2441 9.90138 44.2808 11.0381 45.9521 12.6146C46.0933 12.7545 46.2293 12.8918 46.3653 13.0343Z" fill="#B7C6D8"/>
<path fill-rule="evenodd" clip-rule="evenodd" d="M31.4826 24.5537L30.0992 33.1835H23.6347L20.4731 48.0633L20.4522 48.1536H6.22217L11.5648 40.9438L15.0703 24.5537H31.4826Z" fill="#B7C6D8"/>
</svg>
