<svg width="56" height="56" viewBox="0 0 56 56" fill="none" xmlns="http://www.w3.org/2000/svg">
<path d="M28.3425 47.5504C39.2705 47.5504 48.1293 38.647 48.1293 27.6641C48.1293 16.6812 39.2705 7.77783 28.3425 7.77783C17.4145 7.77783 8.55566 16.6812 8.55566 27.6641C8.55566 38.647 17.4145 47.5504 28.3425 47.5504Z" fill="#B7C6D8"/>
<path d="M28.5914 43.3141C25.5443 43.3202 22.5639 42.4173 20.0278 40.7197C17.4917 39.0222 15.514 36.6063 14.3451 33.7782C13.1762 30.95 12.8688 27.8369 13.4618 24.833C14.0547 21.8291 15.5214 19.0697 17.676 16.9043C19.8307 14.7388 22.5763 13.2648 25.5651 12.6688C28.554 12.0729 31.6516 12.3818 34.4656 13.5566C37.2795 14.7313 39.6833 16.719 41.3724 19.2679C43.0615 21.8167 43.9599 24.812 43.9538 27.8744C43.9408 31.9653 42.3181 35.8849 39.4399 38.7776C36.5617 41.6702 32.6617 43.3011 28.5914 43.3141ZM28.5914 15.1522C26.0938 15.1522 23.6523 15.8965 21.5757 17.2911C19.499 18.6856 17.8804 20.6677 16.9247 22.9868C15.9689 25.3058 15.7188 27.8576 16.2061 30.3195C16.6933 32.7814 17.896 35.0428 19.6621 36.8178C21.4281 38.5927 23.6782 39.8014 26.1278 40.2911C28.5774 40.7808 31.1164 40.5295 33.4239 39.5689C35.7313 38.6083 37.7035 36.9816 39.0911 34.8945C40.4787 32.8074 41.2193 30.3537 41.2193 27.8436C41.216 24.4786 39.8846 21.2524 37.5171 18.873C35.1496 16.4936 31.9395 15.1554 28.5914 15.1522Z" fill="white"/>
<path d="M30.0846 20.6982H27.3193V34.631H30.0846V20.6982Z" fill="white"/>
</svg>
