<svg width="56" height="56" viewBox="0 0 56 56" fill="none" xmlns="http://www.w3.org/2000/svg">
<path d="M32.0898 18.8229L28.5618 16.7649C28.2317 16.5988 27.8673 16.5122 27.4978 16.5122C27.1282 16.5122 26.7638 16.5988 26.4338 16.7649L22.9058 18.8229C22.1498 19.2709 22.1358 19.9989 22.9058 20.4329L26.4338 22.519C26.7618 22.6918 27.127 22.7822 27.4978 22.7822C27.8685 22.7822 28.2337 22.6918 28.5618 22.519L32.0898 20.4329C32.2561 20.374 32.4002 20.265 32.5021 20.1208C32.6039 19.9767 32.6586 19.8045 32.6586 19.6279C32.6586 19.4514 32.6039 19.2792 32.5021 19.1351C32.4002 18.9909 32.2561 18.8819 32.0898 18.8229Z" fill="#B7C6D8"/>
<path d="M45.8517 16.2749L28.7997 6.47491C28.4696 6.30873 28.1052 6.22217 27.7357 6.22217C27.3661 6.22217 27.0017 6.30873 26.6717 6.47491L9.61966 16.2749C9.31157 16.4798 9.05515 16.7533 8.87054 17.0739C8.68593 17.3945 8.57815 17.7536 8.55566 18.1229V37.7229C8.57815 38.0922 8.68593 38.4513 8.87054 38.7719C9.05515 39.0926 9.31157 39.366 9.61966 39.5709L26.6717 49.3709C27.0017 49.5371 27.3661 49.6237 27.7357 49.6237C28.1052 49.6237 28.4696 49.5371 28.7997 49.3709L45.8517 39.5709C46.1598 39.366 46.4162 39.0926 46.6008 38.7719C46.7854 38.4513 46.8932 38.0922 46.9157 37.7229V18.1229C46.8932 17.7536 46.7854 17.3945 46.6008 17.0739C46.4162 16.7533 46.1598 16.4798 45.8517 16.2749ZM38.2637 20.8249L28.5617 26.5369C28.2337 26.7098 27.8685 26.8001 27.4977 26.8001C27.1269 26.8001 26.7617 26.7098 26.4337 26.5369L20.2737 22.9249C19.5177 22.4629 18.8737 22.8269 18.8737 23.7089V34.6429C18.9002 34.816 18.8746 34.9931 18.8002 35.1515C18.7257 35.31 18.6058 35.4428 18.4556 35.5329C18.3055 35.6229 18.1319 35.6663 17.957 35.6574C17.7822 35.6485 17.6139 35.5878 17.4737 35.4829L16.4237 34.9369C16.107 34.7456 15.842 34.4798 15.6516 34.1625C15.4613 33.8453 15.3514 33.4863 15.3317 33.1169V21.2449C15.3542 20.8756 15.4619 20.5165 15.6465 20.1959C15.8312 19.8753 16.0876 19.6018 16.3957 19.3969L26.4197 13.5729C26.7497 13.4067 27.1141 13.3202 27.4837 13.3202C27.8532 13.3202 28.2176 13.4067 28.5477 13.5729L38.2497 19.1729C38.4326 19.2193 38.5951 19.3249 38.7116 19.4734C38.8282 19.6219 38.8923 19.8048 38.8939 19.9935C38.8955 20.1823 38.8345 20.3662 38.7205 20.5166C38.6065 20.667 38.4458 20.7755 38.2637 20.8249Z" fill="#B7C6D8"/>
</svg>
