<svg width="144" height="39" viewBox="0 0 144 39" fill="none" xmlns="http://www.w3.org/2000/svg">
<path d="M58.4559 33.7292V12.6484H53.1841V38.9998H75.538L71.1633 33.7292H58.4559Z" fill="#F9C910"/>
<path d="M138.381 12.6484V30.1909L123.794 12.6484H118.523V17.8508L121.452 21.403H118.523V38.9998H123.794V21.42L138.381 38.9998H143.615V12.6484H138.381Z" fill="#ED1C24"/>
<path d="M23.6469 12.6489H4.52457L0.150475 17.919H15.7768L0 33.7297V39.0003H23.6469V33.7297H7.86941L23.6469 17.919V12.6489Z" fill="#F9C910"/>
<path d="M100.059 12.6484V28.4969L96.143 33.7292L92.1516 28.6289V12.6484H86.8803V28.4969L83.0018 33.7292L79.0102 28.6178V12.6484H73.7388V31.1322L80.3284 38.9998H85.6L89.5163 34.2941L93.5069 38.9998H98.7792L105.293 31.1322V12.6484H100.059Z" fill="#ED1C24"/>
<path d="M49.5994 12.6484H27.2324V38.9998H49.5994V33.7292H32.5037V28.4969H48.2814V23.2268H35.4296L32.5027 25.7045L32.5037 17.9185H49.5994V12.6484Z" fill="#F9C910"/>
<path d="M106.89 21.403H108.944V38.9998H114.215V21.403V12.6484L106.89 21.403Z" fill="#ED1C24"/>
<path d="M101.351 8.43243H100.135L100.135 0.335508H104.704V1.3644H101.351V3.97018H103.692L102.77 4.99907H101.351V8.43243Z" fill="#ED1C24"/>
<path d="M107.133 0C107.315 0 107.474 0.0521902 107.61 0.15657C107.747 0.260951 107.815 0.43616 107.815 0.682199C107.815 0.920783 107.747 1.09599 107.61 1.20783C107.474 1.31221 107.315 1.3644 107.133 1.3644C106.936 1.3644 106.769 1.31221 106.633 1.20783C106.504 1.09599 106.44 0.920783 106.44 0.682199C106.44 0.43616 106.504 0.260951 106.633 0.15657C106.769 0.0521902 106.936 0 107.133 0ZM107.724 2.29264V8.43243H106.519V2.29264H107.724Z" fill="#ED1C24"/>
<path d="M113.235 2.1808C113.947 2.1808 114.493 2.35601 114.872 2.70643C115.251 3.05685 115.44 3.61976 115.44 4.39515V8.43243H114.247V4.56291C114.247 3.62349 113.826 3.15377 112.985 3.15377C112.356 3.15377 111.924 3.33644 111.69 3.70177C111.455 4.0671 111.337 4.59273 111.337 5.27866V8.43243H110.133V2.29264H111.087L111.258 3.09786H111.326C111.523 2.78472 111.792 2.55359 112.133 2.40447C112.481 2.25536 112.849 2.1808 113.235 2.1808Z" fill="#ED1C24"/>
<path d="M120.183 2.1808C120.948 2.1808 121.52 2.34856 121.899 2.68406C122.286 3.01212 122.479 3.53029 122.479 4.23858V8.3206H121.626L121.388 7.48183H121.342C121.077 7.80988 120.797 8.05219 120.501 8.20876C120.213 8.35788 119.812 8.43243 119.297 8.43243C118.744 8.43243 118.285 8.28705 117.921 7.99627C117.558 7.69804 117.376 7.23579 117.376 6.60951C117.376 5.99814 117.611 5.53215 118.081 5.21156C118.55 4.89096 119.316 4.64131 120.294 4.61149H120.952H121.297V4.31687C121.297 3.87698 121.195 3.56757 120.99 3.38863C120.785 3.20224 120.498 3.10904 120.126 3.10904C119.816 3.10904 119.516 3.15377 119.228 3.24324C118.941 3.33271 118.664 3.44082 118.399 3.56757L118.012 2.70643C118.3 2.55732 118.63 2.4343 119.001 2.33737C119.38 2.23299 119.774 2.1808 120.183 2.1808ZM120.454 5.4916C119.757 5.52142 119.285 5.5918 119.012 5.7931C118.747 5.98695 118.615 6.26281 118.615 6.62069C118.615 6.93383 118.709 7.16123 118.899 7.30289C119.088 7.44455 119.335 7.51538 119.638 7.51538C120.107 7.51538 120.498 7.24406 120.808 6.98311C121.126 6.72216 121.286 6.33073 121.286 5.80883V5.4916H120.454Z" fill="#ED1C24"/>
<path d="M127.953 2.1808C128.665 2.1808 129.211 2.35601 129.59 2.70643C129.969 3.05685 130.158 3.61976 130.158 4.39515V8.43243H128.965V4.56291C128.965 3.62349 128.544 3.15377 127.703 3.15377C127.074 3.15377 126.642 3.33644 126.407 3.70177C126.173 4.0671 126.055 4.59273 126.055 5.27866L126.044 8.43243H124.85V2.29264H125.805L125.976 3.09786H126.044C126.241 2.78472 126.51 2.55359 126.851 2.40447C127.199 2.25536 127.567 2.1808 127.953 2.1808Z" fill="#ED1C24"/>
<path d="M134.992 8.43243C134.143 8.43243 133.461 8.18639 132.946 7.69431C132.431 7.19478 132.173 6.41193 132.173 5.34576C132.173 4.60019 132.298 3.99627 132.548 3.53402C132.798 3.07176 133.143 2.73253 133.583 2.51631C134.022 2.29264 134.522 2.1808 135.083 2.1808C135.424 2.1808 135.742 2.21808 136.038 2.29264C136.341 2.35974 136.591 2.43802 136.788 2.52749L136.424 3.48928C136.212 3.40727 135.984 3.33644 135.742 3.27679C135.507 3.21715 135.284 3.18733 135.071 3.18733C133.965 3.18733 133.412 3.90308 133.412 5.33458C133.412 6.0205 133.549 6.5424 133.821 6.90028C134.094 7.25815 134.496 7.43709 135.026 7.43709C135.367 7.43709 135.666 7.39981 135.924 7.32526C136.189 7.2507 136.432 7.15377 136.651 7.03448V8.06337C136.432 8.19012 136.193 8.28332 135.935 8.34296C135.678 8.40261 135.363 8.43243 134.992 8.43243Z" fill="#ED1C24"/>
<path d="M141.023 2.1808C141.826 2.1808 142.459 2.42684 142.921 2.91892C143.383 3.40354 143.614 4.0671 143.614 4.9096V5.55825H139.5C139.515 6.17707 139.678 6.65051 139.989 6.97856C140.307 7.30662 140.75 7.47064 141.319 7.47064C141.713 7.47064 142.061 7.43709 142.364 7.36999C142.675 7.29543 143.289 7.12022 143.614 6.97856L142.692 8.16892C142.692 8.16892 142.516 8.30396 142.387 8.33178C142.076 8.39888 141.705 8.43243 141.273 8.43243C140.675 8.43243 140.148 8.31687 139.694 8.08574C139.247 7.85461 138.894 7.51165 138.637 7.05685C138.387 6.59459 138.262 6.02796 138.262 5.35694C138.262 4.67847 138.375 4.10438 138.602 3.63467C138.837 3.16496 139.159 2.80708 139.569 2.56104C139.985 2.30755 140.47 2.1808 141.023 2.1808ZM141.023 3.09786C140.591 3.09786 140.243 3.23579 139.978 3.51165C139.72 3.78751 139.569 4.17894 139.523 4.68593H142.41C142.402 4.21622 142.285 3.83597 142.057 3.5452C141.838 3.24697 141.493 3.09786 141.023 3.09786Z" fill="#ED1C24"/>
</svg>
