<svg width="585" height="312" viewBox="0 0 585 312" fill="none" xmlns="http://www.w3.org/2000/svg">
<path d="M54.873 264.489C54.873 265.296 54.8138 266.018 54.6953 266.656C54.5814 267.294 54.3945 267.834 54.1348 268.276C53.8796 268.718 53.5492 269.056 53.1436 269.288C52.738 269.521 52.2458 269.637 51.667 269.637C51.1292 269.637 50.6598 269.521 50.2588 269.288C49.8623 269.056 49.5319 268.718 49.2676 268.276C49.0078 267.834 48.8118 267.294 48.6797 266.656C48.5521 266.018 48.4883 265.296 48.4883 264.489C48.4883 263.683 48.5452 262.96 48.6592 262.322C48.7777 261.684 48.9622 261.146 49.2129 260.709C49.4681 260.267 49.7962 259.93 50.1973 259.697C50.6029 259.465 51.0928 259.349 51.667 259.349C52.2093 259.349 52.681 259.465 53.082 259.697C53.4831 259.925 53.8158 260.26 54.0801 260.702C54.3444 261.14 54.5426 261.677 54.6748 262.315C54.807 262.953 54.873 263.678 54.873 264.489ZM49.7529 264.489C49.7529 265.173 49.7871 265.77 49.8555 266.28C49.9238 266.791 50.0332 267.217 50.1836 267.559C50.334 267.896 50.5299 268.151 50.7715 268.324C51.0176 268.493 51.3161 268.577 51.667 268.577C52.0179 268.577 52.3164 268.493 52.5625 268.324C52.8086 268.156 53.0091 267.903 53.1641 267.565C53.3236 267.228 53.4375 266.804 53.5059 266.294C53.5788 265.779 53.6152 265.177 53.6152 264.489C53.6152 263.806 53.5788 263.209 53.5059 262.698C53.4375 262.188 53.3236 261.764 53.1641 261.427C53.0091 261.09 52.8086 260.837 52.5625 260.668C52.3164 260.499 52.0179 260.415 51.667 260.415C51.3161 260.415 51.0176 260.499 50.7715 260.668C50.5299 260.837 50.334 261.09 50.1836 261.427C50.0332 261.764 49.9238 262.188 49.8555 262.698C49.7871 263.209 49.7529 263.806 49.7529 264.489ZM56.5342 268.741C56.5342 268.568 56.557 268.422 56.6025 268.304C56.6481 268.181 56.7096 268.083 56.7871 268.01C56.8646 267.932 56.9557 267.878 57.0605 267.846C57.1654 267.809 57.2793 267.791 57.4023 267.791C57.5208 267.791 57.6325 267.809 57.7373 267.846C57.8467 267.878 57.9401 267.932 58.0176 268.01C58.0951 268.083 58.1566 268.181 58.2021 268.304C58.2477 268.422 58.2705 268.568 58.2705 268.741C58.2705 268.91 58.2477 269.056 58.2021 269.179C58.1566 269.297 58.0951 269.395 58.0176 269.473C57.9401 269.55 57.8467 269.607 57.7373 269.644C57.6325 269.68 57.5208 269.698 57.4023 269.698C57.2793 269.698 57.1654 269.68 57.0605 269.644C56.9557 269.607 56.8646 269.55 56.7871 269.473C56.7096 269.395 56.6481 269.297 56.6025 269.179C56.557 269.056 56.5342 268.91 56.5342 268.741ZM64.1494 269.5H62.9463V263.259C62.9463 263.063 62.9463 262.853 62.9463 262.63C62.9508 262.407 62.9554 262.186 62.96 261.967C62.9691 261.743 62.9759 261.532 62.9805 261.331C62.9896 261.126 62.9964 260.946 63.001 260.791C62.9235 260.873 62.8551 260.944 62.7959 261.003C62.7367 261.062 62.6751 261.119 62.6113 261.174C62.5521 261.229 62.4883 261.288 62.4199 261.352C62.3516 261.411 62.2695 261.481 62.1738 261.563L61.1621 262.391L60.5059 261.55L63.124 259.506H64.1494V269.5Z" fill="#828A97"/>
<path d="M54.873 192.489C54.873 193.296 54.8138 194.018 54.6953 194.656C54.5814 195.294 54.3945 195.834 54.1348 196.276C53.8796 196.718 53.5492 197.056 53.1436 197.288C52.738 197.521 52.2458 197.637 51.667 197.637C51.1292 197.637 50.6598 197.521 50.2588 197.288C49.8623 197.056 49.5319 196.718 49.2676 196.276C49.0078 195.834 48.8118 195.294 48.6797 194.656C48.5521 194.018 48.4883 193.296 48.4883 192.489C48.4883 191.683 48.5452 190.96 48.6592 190.322C48.7777 189.684 48.9622 189.146 49.2129 188.709C49.4681 188.267 49.7962 187.93 50.1973 187.697C50.6029 187.465 51.0928 187.349 51.667 187.349C52.2093 187.349 52.681 187.465 53.082 187.697C53.4831 187.925 53.8158 188.26 54.0801 188.702C54.3444 189.14 54.5426 189.677 54.6748 190.315C54.807 190.953 54.873 191.678 54.873 192.489ZM49.7529 192.489C49.7529 193.173 49.7871 193.77 49.8555 194.28C49.9238 194.791 50.0332 195.217 50.1836 195.559C50.334 195.896 50.5299 196.151 50.7715 196.324C51.0176 196.493 51.3161 196.577 51.667 196.577C52.0179 196.577 52.3164 196.493 52.5625 196.324C52.8086 196.156 53.0091 195.903 53.1641 195.565C53.3236 195.228 53.4375 194.804 53.5059 194.294C53.5788 193.779 53.6152 193.177 53.6152 192.489C53.6152 191.806 53.5788 191.209 53.5059 190.698C53.4375 190.188 53.3236 189.764 53.1641 189.427C53.0091 189.09 52.8086 188.837 52.5625 188.668C52.3164 188.499 52.0179 188.415 51.667 188.415C51.3161 188.415 51.0176 188.499 50.7715 188.668C50.5299 188.837 50.334 189.09 50.1836 189.427C50.0332 189.764 49.9238 190.188 49.8555 190.698C49.7871 191.209 49.7529 191.806 49.7529 192.489ZM56.5342 196.741C56.5342 196.568 56.557 196.422 56.6025 196.304C56.6481 196.181 56.7096 196.083 56.7871 196.01C56.8646 195.932 56.9557 195.878 57.0605 195.846C57.1654 195.809 57.2793 195.791 57.4023 195.791C57.5208 195.791 57.6325 195.809 57.7373 195.846C57.8467 195.878 57.9401 195.932 58.0176 196.01C58.0951 196.083 58.1566 196.181 58.2021 196.304C58.2477 196.422 58.2705 196.568 58.2705 196.741C58.2705 196.91 58.2477 197.056 58.2021 197.179C58.1566 197.297 58.0951 197.395 58.0176 197.473C57.9401 197.55 57.8467 197.607 57.7373 197.644C57.6325 197.68 57.5208 197.698 57.4023 197.698C57.2793 197.698 57.1654 197.68 57.0605 197.644C56.9557 197.607 56.8646 197.55 56.7871 197.473C56.7096 197.395 56.6481 197.297 56.6025 197.179C56.557 197.056 56.5342 196.91 56.5342 196.741ZM66.7197 195.258H65.2637V197.5H64.0605V195.258H59.4463V194.171L63.9785 187.451H65.2637V194.123H66.7197V195.258ZM64.0605 194.123V191.689C64.0605 191.434 64.0628 191.168 64.0674 190.89C64.0765 190.607 64.0856 190.334 64.0947 190.069C64.1038 189.8 64.113 189.55 64.1221 189.317C64.1357 189.085 64.1449 188.891 64.1494 188.736H64.0879C64.056 188.827 64.015 188.93 63.9648 189.044C63.9193 189.153 63.8669 189.265 63.8076 189.379C63.7529 189.488 63.696 189.595 63.6367 189.7C63.5775 189.805 63.5228 189.894 63.4727 189.967L60.6631 194.123H64.0605Z" fill="#828A97"/>
<path d="M54.873 240.489C54.873 241.296 54.8138 242.018 54.6953 242.656C54.5814 243.294 54.3945 243.834 54.1348 244.276C53.8796 244.718 53.5492 245.056 53.1436 245.288C52.738 245.521 52.2458 245.637 51.667 245.637C51.1292 245.637 50.6598 245.521 50.2588 245.288C49.8623 245.056 49.5319 244.718 49.2676 244.276C49.0078 243.834 48.8118 243.294 48.6797 242.656C48.5521 242.018 48.4883 241.296 48.4883 240.489C48.4883 239.683 48.5452 238.96 48.6592 238.322C48.7777 237.684 48.9622 237.146 49.2129 236.709C49.4681 236.267 49.7962 235.93 50.1973 235.697C50.6029 235.465 51.0928 235.349 51.667 235.349C52.2093 235.349 52.681 235.465 53.082 235.697C53.4831 235.925 53.8158 236.26 54.0801 236.702C54.3444 237.14 54.5426 237.677 54.6748 238.315C54.807 238.953 54.873 239.678 54.873 240.489ZM49.7529 240.489C49.7529 241.173 49.7871 241.77 49.8555 242.28C49.9238 242.791 50.0332 243.217 50.1836 243.559C50.334 243.896 50.5299 244.151 50.7715 244.324C51.0176 244.493 51.3161 244.577 51.667 244.577C52.0179 244.577 52.3164 244.493 52.5625 244.324C52.8086 244.156 53.0091 243.903 53.1641 243.565C53.3236 243.228 53.4375 242.804 53.5059 242.294C53.5788 241.779 53.6152 241.177 53.6152 240.489C53.6152 239.806 53.5788 239.209 53.5059 238.698C53.4375 238.188 53.3236 237.764 53.1641 237.427C53.0091 237.09 52.8086 236.837 52.5625 236.668C52.3164 236.499 52.0179 236.415 51.667 236.415C51.3161 236.415 51.0176 236.499 50.7715 236.668C50.5299 236.837 50.334 237.09 50.1836 237.427C50.0332 237.764 49.9238 238.188 49.8555 238.698C49.7871 239.209 49.7529 239.806 49.7529 240.489ZM56.5342 244.741C56.5342 244.568 56.557 244.422 56.6025 244.304C56.6481 244.181 56.7096 244.083 56.7871 244.01C56.8646 243.932 56.9557 243.878 57.0605 243.846C57.1654 243.809 57.2793 243.791 57.4023 243.791C57.5208 243.791 57.6325 243.809 57.7373 243.846C57.8467 243.878 57.9401 243.932 58.0176 244.01C58.0951 244.083 58.1566 244.181 58.2021 244.304C58.2477 244.422 58.2705 244.568 58.2705 244.741C58.2705 244.91 58.2477 245.056 58.2021 245.179C58.1566 245.297 58.0951 245.395 58.0176 245.473C57.9401 245.55 57.8467 245.607 57.7373 245.644C57.6325 245.68 57.5208 245.698 57.4023 245.698C57.2793 245.698 57.1654 245.68 57.0605 245.644C56.9557 245.607 56.8646 245.55 56.7871 245.473C56.7096 245.395 56.6481 245.297 56.6025 245.179C56.557 245.056 56.5342 244.91 56.5342 244.741ZM66.1797 245.5H59.9453V244.434L62.3379 241.829C62.6797 241.46 62.985 241.123 63.2539 240.817C63.5228 240.512 63.7507 240.214 63.9375 239.922C64.1289 239.63 64.2747 239.339 64.375 239.047C64.4753 238.751 64.5254 238.429 64.5254 238.083C64.5254 237.814 64.4867 237.577 64.4092 237.372C64.3317 237.167 64.2201 236.994 64.0742 236.853C63.9329 236.707 63.7643 236.597 63.5684 236.524C63.3724 236.451 63.1536 236.415 62.9121 236.415C62.4792 236.415 62.0872 236.504 61.7363 236.682C61.39 236.855 61.0596 237.078 60.7451 237.352L60.0479 236.538C60.2301 236.374 60.4261 236.221 60.6357 236.08C60.8454 235.934 61.071 235.809 61.3125 235.704C61.554 235.599 61.8092 235.517 62.0781 235.458C62.347 235.394 62.6296 235.362 62.9258 235.362C63.3633 235.362 63.7575 235.424 64.1084 235.547C64.4639 235.67 64.7646 235.848 65.0107 236.08C65.2568 236.308 65.446 236.588 65.5781 236.921C65.7148 237.249 65.7832 237.62 65.7832 238.035C65.7832 238.423 65.7217 238.792 65.5986 239.143C65.4801 239.493 65.3138 239.84 65.0996 240.182C64.89 240.519 64.637 240.858 64.3408 241.2C64.0492 241.542 63.7324 241.897 63.3906 242.267L61.4697 244.311V244.365H66.1797V245.5Z" fill="#828A97"/>
<path d="M54.873 168.489C54.873 169.296 54.8138 170.018 54.6953 170.656C54.5814 171.294 54.3945 171.834 54.1348 172.276C53.8796 172.718 53.5492 173.056 53.1436 173.288C52.738 173.521 52.2458 173.637 51.667 173.637C51.1292 173.637 50.6598 173.521 50.2588 173.288C49.8623 173.056 49.5319 172.718 49.2676 172.276C49.0078 171.834 48.8118 171.294 48.6797 170.656C48.5521 170.018 48.4883 169.296 48.4883 168.489C48.4883 167.683 48.5452 166.96 48.6592 166.322C48.7777 165.684 48.9622 165.146 49.2129 164.709C49.4681 164.267 49.7962 163.93 50.1973 163.697C50.6029 163.465 51.0928 163.349 51.667 163.349C52.2093 163.349 52.681 163.465 53.082 163.697C53.4831 163.925 53.8158 164.26 54.0801 164.702C54.3444 165.14 54.5426 165.677 54.6748 166.315C54.807 166.953 54.873 167.678 54.873 168.489ZM49.7529 168.489C49.7529 169.173 49.7871 169.77 49.8555 170.28C49.9238 170.791 50.0332 171.217 50.1836 171.559C50.334 171.896 50.5299 172.151 50.7715 172.324C51.0176 172.493 51.3161 172.577 51.667 172.577C52.0179 172.577 52.3164 172.493 52.5625 172.324C52.8086 172.156 53.0091 171.903 53.1641 171.565C53.3236 171.228 53.4375 170.804 53.5059 170.294C53.5788 169.779 53.6152 169.177 53.6152 168.489C53.6152 167.806 53.5788 167.209 53.5059 166.698C53.4375 166.188 53.3236 165.764 53.1641 165.427C53.0091 165.09 52.8086 164.837 52.5625 164.668C52.3164 164.499 52.0179 164.415 51.667 164.415C51.3161 164.415 51.0176 164.499 50.7715 164.668C50.5299 164.837 50.334 165.09 50.1836 165.427C50.0332 165.764 49.9238 166.188 49.8555 166.698C49.7871 167.209 49.7529 167.806 49.7529 168.489ZM56.5342 172.741C56.5342 172.568 56.557 172.422 56.6025 172.304C56.6481 172.181 56.7096 172.083 56.7871 172.01C56.8646 171.932 56.9557 171.878 57.0605 171.846C57.1654 171.809 57.2793 171.791 57.4023 171.791C57.5208 171.791 57.6325 171.809 57.7373 171.846C57.8467 171.878 57.9401 171.932 58.0176 172.01C58.0951 172.083 58.1566 172.181 58.2021 172.304C58.2477 172.422 58.2705 172.568 58.2705 172.741C58.2705 172.91 58.2477 173.056 58.2021 173.179C58.1566 173.297 58.0951 173.395 58.0176 173.473C57.9401 173.55 57.8467 173.607 57.7373 173.644C57.6325 173.68 57.5208 173.698 57.4023 173.698C57.2793 173.698 57.1654 173.68 57.0605 173.644C56.9557 173.607 56.8646 173.55 56.7871 173.473C56.7096 173.395 56.6481 173.297 56.6025 173.179C56.557 173.056 56.5342 172.91 56.5342 172.741ZM63.0146 167.368C63.4658 167.368 63.8851 167.432 64.2725 167.56C64.6644 167.683 65.0039 167.867 65.291 168.113C65.5827 168.359 65.8105 168.665 65.9746 169.029C66.1387 169.394 66.2207 169.815 66.2207 170.294C66.2207 170.813 66.1432 171.281 65.9883 171.695C65.8333 172.11 65.6032 172.461 65.2979 172.748C64.9925 173.035 64.6143 173.256 64.1631 173.411C63.7165 173.562 63.2015 173.637 62.6182 173.637C62.3857 173.637 62.1556 173.625 61.9277 173.603C61.7044 173.58 61.488 173.546 61.2783 173.5C61.0732 173.459 60.8773 173.404 60.6904 173.336C60.5036 173.268 60.335 173.188 60.1846 173.097V171.921C60.335 172.026 60.5104 172.119 60.7109 172.201C60.916 172.283 61.1302 172.352 61.3535 172.406C61.5768 172.461 61.8001 172.504 62.0234 172.536C62.2513 172.563 62.4609 172.577 62.6523 172.577C63.0124 172.577 63.3337 172.536 63.6162 172.454C63.8988 172.368 64.138 172.235 64.334 172.058C64.5299 171.88 64.6803 171.657 64.7852 171.388C64.89 171.119 64.9424 170.8 64.9424 170.431C64.9424 169.779 64.7419 169.282 64.3408 168.94C63.9398 168.594 63.3564 168.421 62.5908 168.421C62.4678 168.421 62.3333 168.428 62.1875 168.441C62.0462 168.451 61.9027 168.464 61.7568 168.482C61.6156 168.501 61.4788 168.521 61.3467 168.544C61.2191 168.562 61.1074 168.58 61.0117 168.599L60.3965 168.209L60.7725 163.506H65.4893V164.641H61.8525L61.5859 167.505C61.7318 167.478 61.9232 167.448 62.1602 167.416C62.4017 167.384 62.6865 167.368 63.0146 167.368Z" fill="#828A97"/>
<path d="M54.873 120.489C54.873 121.296 54.8138 122.018 54.6953 122.656C54.5814 123.294 54.3945 123.834 54.1348 124.276C53.8796 124.718 53.5492 125.056 53.1436 125.288C52.738 125.521 52.2458 125.637 51.667 125.637C51.1292 125.637 50.6598 125.521 50.2588 125.288C49.8623 125.056 49.5319 124.718 49.2676 124.276C49.0078 123.834 48.8118 123.294 48.6797 122.656C48.5521 122.018 48.4883 121.296 48.4883 120.489C48.4883 119.683 48.5452 118.96 48.6592 118.322C48.7777 117.684 48.9622 117.146 49.2129 116.709C49.4681 116.267 49.7962 115.93 50.1973 115.697C50.6029 115.465 51.0928 115.349 51.667 115.349C52.2093 115.349 52.681 115.465 53.082 115.697C53.4831 115.925 53.8158 116.26 54.0801 116.702C54.3444 117.14 54.5426 117.677 54.6748 118.315C54.807 118.953 54.873 119.678 54.873 120.489ZM49.7529 120.489C49.7529 121.173 49.7871 121.77 49.8555 122.28C49.9238 122.791 50.0332 123.217 50.1836 123.559C50.334 123.896 50.5299 124.151 50.7715 124.324C51.0176 124.493 51.3161 124.577 51.667 124.577C52.0179 124.577 52.3164 124.493 52.5625 124.324C52.8086 124.156 53.0091 123.903 53.1641 123.565C53.3236 123.228 53.4375 122.804 53.5059 122.294C53.5788 121.779 53.6152 121.177 53.6152 120.489C53.6152 119.806 53.5788 119.209 53.5059 118.698C53.4375 118.188 53.3236 117.764 53.1641 117.427C53.0091 117.09 52.8086 116.837 52.5625 116.668C52.3164 116.499 52.0179 116.415 51.667 116.415C51.3161 116.415 51.0176 116.499 50.7715 116.668C50.5299 116.837 50.334 117.09 50.1836 117.427C50.0332 117.764 49.9238 118.188 49.8555 118.698C49.7871 119.209 49.7529 119.806 49.7529 120.489ZM56.5342 124.741C56.5342 124.568 56.557 124.422 56.6025 124.304C56.6481 124.181 56.7096 124.083 56.7871 124.01C56.8646 123.932 56.9557 123.878 57.0605 123.846C57.1654 123.809 57.2793 123.791 57.4023 123.791C57.5208 123.791 57.6325 123.809 57.7373 123.846C57.8467 123.878 57.9401 123.932 58.0176 124.01C58.0951 124.083 58.1566 124.181 58.2021 124.304C58.2477 124.422 58.2705 124.568 58.2705 124.741C58.2705 124.91 58.2477 125.056 58.2021 125.179C58.1566 125.297 58.0951 125.395 58.0176 125.473C57.9401 125.55 57.8467 125.607 57.7373 125.644C57.6325 125.68 57.5208 125.698 57.4023 125.698C57.2793 125.698 57.1654 125.68 57.0605 125.644C56.9557 125.607 56.8646 125.55 56.7871 125.473C56.7096 125.395 56.6481 125.297 56.6025 125.179C56.557 125.056 56.5342 124.91 56.5342 124.741ZM61.21 125.5L65.0586 116.641H59.9043V115.506H66.3301V116.497L62.5361 125.5H61.21Z" fill="#828A97"/>
<path d="M54.873 216.489C54.873 217.296 54.8138 218.018 54.6953 218.656C54.5814 219.294 54.3945 219.834 54.1348 220.276C53.8796 220.718 53.5492 221.056 53.1436 221.288C52.738 221.521 52.2458 221.637 51.667 221.637C51.1292 221.637 50.6598 221.521 50.2588 221.288C49.8623 221.056 49.5319 220.718 49.2676 220.276C49.0078 219.834 48.8118 219.294 48.6797 218.656C48.5521 218.018 48.4883 217.296 48.4883 216.489C48.4883 215.683 48.5452 214.96 48.6592 214.322C48.7777 213.684 48.9622 213.146 49.2129 212.709C49.4681 212.267 49.7962 211.93 50.1973 211.697C50.6029 211.465 51.0928 211.349 51.667 211.349C52.2093 211.349 52.681 211.465 53.082 211.697C53.4831 211.925 53.8158 212.26 54.0801 212.702C54.3444 213.14 54.5426 213.677 54.6748 214.315C54.807 214.953 54.873 215.678 54.873 216.489ZM49.7529 216.489C49.7529 217.173 49.7871 217.77 49.8555 218.28C49.9238 218.791 50.0332 219.217 50.1836 219.559C50.334 219.896 50.5299 220.151 50.7715 220.324C51.0176 220.493 51.3161 220.577 51.667 220.577C52.0179 220.577 52.3164 220.493 52.5625 220.324C52.8086 220.156 53.0091 219.903 53.1641 219.565C53.3236 219.228 53.4375 218.804 53.5059 218.294C53.5788 217.779 53.6152 217.177 53.6152 216.489C53.6152 215.806 53.5788 215.209 53.5059 214.698C53.4375 214.188 53.3236 213.764 53.1641 213.427C53.0091 213.09 52.8086 212.837 52.5625 212.668C52.3164 212.499 52.0179 212.415 51.667 212.415C51.3161 212.415 51.0176 212.499 50.7715 212.668C50.5299 212.837 50.334 213.09 50.1836 213.427C50.0332 213.764 49.9238 214.188 49.8555 214.698C49.7871 215.209 49.7529 215.806 49.7529 216.489ZM56.5342 220.741C56.5342 220.568 56.557 220.422 56.6025 220.304C56.6481 220.181 56.7096 220.083 56.7871 220.01C56.8646 219.932 56.9557 219.878 57.0605 219.846C57.1654 219.809 57.2793 219.791 57.4023 219.791C57.5208 219.791 57.6325 219.809 57.7373 219.846C57.8467 219.878 57.9401 219.932 58.0176 220.01C58.0951 220.083 58.1566 220.181 58.2021 220.304C58.2477 220.422 58.2705 220.568 58.2705 220.741C58.2705 220.91 58.2477 221.056 58.2021 221.179C58.1566 221.297 58.0951 221.395 58.0176 221.473C57.9401 221.55 57.8467 221.607 57.7373 221.644C57.6325 221.68 57.5208 221.698 57.4023 221.698C57.2793 221.698 57.1654 221.68 57.0605 221.644C56.9557 221.607 56.8646 221.55 56.7871 221.473C56.7096 221.395 56.6481 221.297 56.6025 221.179C56.557 221.056 56.5342 220.91 56.5342 220.741ZM65.8584 213.844C65.8584 214.176 65.806 214.479 65.7012 214.753C65.5964 215.026 65.4482 215.263 65.2568 215.464C65.07 215.664 64.8444 215.831 64.5801 215.963C64.3158 216.09 64.0218 216.182 63.6982 216.236V216.277C64.5049 216.378 65.1178 216.635 65.5371 217.05C65.9564 217.46 66.166 217.995 66.166 218.656C66.166 219.094 66.0908 219.495 65.9404 219.859C65.7946 220.224 65.5713 220.538 65.2705 220.803C64.9697 221.067 64.5892 221.272 64.1289 221.418C63.6686 221.564 63.124 221.637 62.4951 221.637C61.9984 221.637 61.529 221.598 61.0869 221.521C60.6494 221.443 60.237 221.302 59.8496 221.097V219.935C60.2461 220.144 60.6745 220.306 61.1348 220.42C61.5996 220.534 62.0439 220.591 62.4678 220.591C62.887 220.591 63.2493 220.545 63.5547 220.454C63.86 220.363 64.1107 220.233 64.3066 220.064C64.5072 219.896 64.653 219.688 64.7441 219.442C64.8398 219.196 64.8877 218.921 64.8877 218.615C64.8877 218.305 64.8262 218.041 64.7031 217.822C64.5846 217.599 64.4137 217.417 64.1904 217.275C63.9671 217.13 63.6937 217.022 63.3701 216.954C63.0511 216.886 62.6888 216.852 62.2832 216.852H61.374V215.819H62.2832C62.6523 215.819 62.9805 215.774 63.2676 215.683C63.5547 215.591 63.7939 215.462 63.9854 215.293C64.1813 215.124 64.3294 214.924 64.4297 214.691C64.5299 214.459 64.5801 214.204 64.5801 213.926C64.5801 213.689 64.5391 213.477 64.457 213.29C64.375 213.103 64.2588 212.946 64.1084 212.818C63.958 212.686 63.778 212.586 63.5684 212.518C63.3587 212.449 63.1263 212.415 62.8711 212.415C62.3835 212.415 61.9528 212.493 61.5791 212.647C61.21 212.798 60.8568 212.996 60.5195 213.242L59.8906 212.388C60.0638 212.246 60.2552 212.114 60.4648 211.991C60.679 211.868 60.9115 211.761 61.1621 211.67C61.4128 211.574 61.6794 211.499 61.9619 211.444C62.249 211.39 62.5521 211.362 62.8711 211.362C63.3633 211.362 63.7939 211.424 64.1631 211.547C64.5368 211.67 64.849 211.843 65.0996 212.066C65.3503 212.285 65.5394 212.547 65.667 212.853C65.7946 213.153 65.8584 213.484 65.8584 213.844Z" fill="#828A97"/>
<path d="M54.873 144.489C54.873 145.296 54.8138 146.018 54.6953 146.656C54.5814 147.294 54.3945 147.834 54.1348 148.276C53.8796 148.718 53.5492 149.056 53.1436 149.288C52.738 149.521 52.2458 149.637 51.667 149.637C51.1292 149.637 50.6598 149.521 50.2588 149.288C49.8623 149.056 49.5319 148.718 49.2676 148.276C49.0078 147.834 48.8118 147.294 48.6797 146.656C48.5521 146.018 48.4883 145.296 48.4883 144.489C48.4883 143.683 48.5452 142.96 48.6592 142.322C48.7777 141.684 48.9622 141.146 49.2129 140.709C49.4681 140.267 49.7962 139.93 50.1973 139.697C50.6029 139.465 51.0928 139.349 51.667 139.349C52.2093 139.349 52.681 139.465 53.082 139.697C53.4831 139.925 53.8158 140.26 54.0801 140.702C54.3444 141.14 54.5426 141.677 54.6748 142.315C54.807 142.953 54.873 143.678 54.873 144.489ZM49.7529 144.489C49.7529 145.173 49.7871 145.77 49.8555 146.28C49.9238 146.791 50.0332 147.217 50.1836 147.559C50.334 147.896 50.5299 148.151 50.7715 148.324C51.0176 148.493 51.3161 148.577 51.667 148.577C52.0179 148.577 52.3164 148.493 52.5625 148.324C52.8086 148.156 53.0091 147.903 53.1641 147.565C53.3236 147.228 53.4375 146.804 53.5059 146.294C53.5788 145.779 53.6152 145.177 53.6152 144.489C53.6152 143.806 53.5788 143.209 53.5059 142.698C53.4375 142.188 53.3236 141.764 53.1641 141.427C53.0091 141.09 52.8086 140.837 52.5625 140.668C52.3164 140.499 52.0179 140.415 51.667 140.415C51.3161 140.415 51.0176 140.499 50.7715 140.668C50.5299 140.837 50.334 141.09 50.1836 141.427C50.0332 141.764 49.9238 142.188 49.8555 142.698C49.7871 143.209 49.7529 143.806 49.7529 144.489ZM56.5342 148.741C56.5342 148.568 56.557 148.422 56.6025 148.304C56.6481 148.181 56.7096 148.083 56.7871 148.01C56.8646 147.932 56.9557 147.878 57.0605 147.846C57.1654 147.809 57.2793 147.791 57.4023 147.791C57.5208 147.791 57.6325 147.809 57.7373 147.846C57.8467 147.878 57.9401 147.932 58.0176 148.01C58.0951 148.083 58.1566 148.181 58.2021 148.304C58.2477 148.422 58.2705 148.568 58.2705 148.741C58.2705 148.91 58.2477 149.056 58.2021 149.179C58.1566 149.297 58.0951 149.395 58.0176 149.473C57.9401 149.55 57.8467 149.607 57.7373 149.644C57.6325 149.68 57.5208 149.698 57.4023 149.698C57.2793 149.698 57.1654 149.68 57.0605 149.644C56.9557 149.607 56.8646 149.55 56.7871 149.473C56.7096 149.395 56.6481 149.297 56.6025 149.179C56.557 149.056 56.5342 148.91 56.5342 148.741ZM60.0615 145.228C60.0615 144.749 60.0843 144.273 60.1299 143.799C60.18 143.325 60.2643 142.871 60.3828 142.438C60.5059 142.001 60.6722 141.595 60.8818 141.222C61.0915 140.848 61.3581 140.524 61.6816 140.251C62.0052 139.973 62.3926 139.757 62.8438 139.602C63.2949 139.442 63.8236 139.362 64.4297 139.362C64.5163 139.362 64.612 139.365 64.7168 139.369C64.8216 139.374 64.9264 139.383 65.0312 139.396C65.1406 139.406 65.2432 139.419 65.3389 139.438C65.4391 139.451 65.528 139.469 65.6055 139.492V140.552C65.446 140.497 65.266 140.456 65.0654 140.429C64.8649 140.401 64.6667 140.388 64.4707 140.388C64.0605 140.388 63.6982 140.438 63.3838 140.538C63.0739 140.634 62.805 140.771 62.5771 140.948C62.3493 141.126 62.1579 141.338 62.0029 141.584C61.8525 141.83 61.7295 142.104 61.6338 142.404C61.5381 142.701 61.4674 143.017 61.4219 143.354C61.3763 143.692 61.3467 144.043 61.333 144.407H61.415C61.5062 144.243 61.6156 144.09 61.7432 143.949C61.8753 143.803 62.028 143.68 62.2012 143.58C62.3743 143.475 62.568 143.393 62.7822 143.334C63.001 143.275 63.2448 143.245 63.5137 143.245C63.9466 143.245 64.3385 143.313 64.6895 143.45C65.0404 143.582 65.3389 143.778 65.585 144.038C65.8311 144.298 66.0202 144.617 66.1523 144.995C66.2891 145.369 66.3574 145.797 66.3574 146.28C66.3574 146.8 66.2868 147.267 66.1455 147.682C66.0042 148.096 65.8014 148.45 65.5371 148.741C65.2728 149.028 64.9538 149.249 64.5801 149.404C64.2064 149.559 63.7871 149.637 63.3223 149.637C62.8665 149.637 62.4382 149.548 62.0371 149.37C61.6406 149.192 61.2965 148.921 61.0049 148.557C60.7132 148.192 60.4831 147.734 60.3145 147.183C60.1458 146.631 60.0615 145.979 60.0615 145.228ZM63.3086 148.591C63.582 148.591 63.8304 148.545 64.0537 148.454C64.2816 148.358 64.4775 148.217 64.6416 148.03C64.8057 147.839 64.931 147.6 65.0176 147.312C65.1087 147.021 65.1543 146.677 65.1543 146.28C65.1543 145.961 65.1156 145.676 65.0381 145.426C64.9652 145.171 64.8535 144.954 64.7031 144.776C64.5527 144.599 64.3636 144.462 64.1357 144.366C63.9124 144.271 63.6504 144.223 63.3496 144.223C63.0443 144.223 62.764 144.277 62.5088 144.387C62.2581 144.492 62.0439 144.631 61.8662 144.804C61.6885 144.972 61.5495 145.166 61.4492 145.385C61.3535 145.604 61.3057 145.822 61.3057 146.041C61.3057 146.346 61.3467 146.652 61.4287 146.957C61.5153 147.258 61.6406 147.529 61.8047 147.771C61.9733 148.012 62.1829 148.21 62.4336 148.365C62.6842 148.516 62.9759 148.591 63.3086 148.591Z" fill="#828A97"/>
<path d="M54.873 96.4893C54.873 97.2959 54.8138 98.0182 54.6953 98.6562C54.5814 99.2943 54.3945 99.8343 54.1348 100.276C53.8796 100.718 53.5492 101.056 53.1436 101.288C52.738 101.521 52.2458 101.637 51.667 101.637C51.1292 101.637 50.6598 101.521 50.2588 101.288C49.8623 101.056 49.5319 100.718 49.2676 100.276C49.0078 99.8343 48.8118 99.2943 48.6797 98.6562C48.5521 98.0182 48.4883 97.2959 48.4883 96.4893C48.4883 95.6826 48.5452 94.9603 48.6592 94.3223C48.7777 93.6842 48.9622 93.1465 49.2129 92.709C49.4681 92.2669 49.7962 91.9297 50.1973 91.6973C50.6029 91.4648 51.0928 91.3486 51.667 91.3486C52.2093 91.3486 52.681 91.4648 53.082 91.6973C53.4831 91.9251 53.8158 92.2601 54.0801 92.7021C54.3444 93.1396 54.5426 93.6774 54.6748 94.3154C54.807 94.9535 54.873 95.6781 54.873 96.4893ZM49.7529 96.4893C49.7529 97.1729 49.7871 97.7699 49.8555 98.2803C49.9238 98.7907 50.0332 99.2168 50.1836 99.5586C50.334 99.8958 50.5299 100.151 50.7715 100.324C51.0176 100.493 51.3161 100.577 51.667 100.577C52.0179 100.577 52.3164 100.493 52.5625 100.324C52.8086 100.156 53.0091 99.9027 53.1641 99.5654C53.3236 99.2282 53.4375 98.8044 53.5059 98.2939C53.5788 97.779 53.6152 97.1774 53.6152 96.4893C53.6152 95.8057 53.5788 95.2087 53.5059 94.6982C53.4375 94.1878 53.3236 93.764 53.1641 93.4268C53.0091 93.0895 52.8086 92.8366 52.5625 92.668C52.3164 92.4993 52.0179 92.415 51.667 92.415C51.3161 92.415 51.0176 92.4993 50.7715 92.668C50.5299 92.8366 50.334 93.0895 50.1836 93.4268C50.0332 93.764 49.9238 94.1878 49.8555 94.6982C49.7871 95.2087 49.7529 95.8057 49.7529 96.4893ZM56.5342 100.741C56.5342 100.568 56.557 100.422 56.6025 100.304C56.6481 100.181 56.7096 100.083 56.7871 100.01C56.8646 99.9323 56.9557 99.8776 57.0605 99.8457C57.1654 99.8092 57.2793 99.791 57.4023 99.791C57.5208 99.791 57.6325 99.8092 57.7373 99.8457C57.8467 99.8776 57.9401 99.9323 58.0176 100.01C58.0951 100.083 58.1566 100.181 58.2021 100.304C58.2477 100.422 58.2705 100.568 58.2705 100.741C58.2705 100.91 58.2477 101.056 58.2021 101.179C58.1566 101.297 58.0951 101.395 58.0176 101.473C57.9401 101.55 57.8467 101.607 57.7373 101.644C57.6325 101.68 57.5208 101.698 57.4023 101.698C57.2793 101.698 57.1654 101.68 57.0605 101.644C56.9557 101.607 56.8646 101.55 56.7871 101.473C56.7096 101.395 56.6481 101.297 56.6025 101.179C56.557 101.056 56.5342 100.91 56.5342 100.741ZM63.1514 91.3486C63.5342 91.3486 63.8942 91.3988 64.2314 91.499C64.5732 91.5993 64.8717 91.7497 65.127 91.9502C65.3867 92.1507 65.5918 92.4014 65.7422 92.7021C65.8926 93.0029 65.9678 93.3538 65.9678 93.7549C65.9678 94.0602 65.9222 94.3359 65.8311 94.582C65.7399 94.8281 65.6146 95.0514 65.4551 95.252C65.2956 95.4479 65.1064 95.6257 64.8877 95.7852C64.6689 95.9401 64.432 96.0814 64.1768 96.209C64.4411 96.3503 64.6986 96.5075 64.9492 96.6807C65.2044 96.8538 65.43 97.0498 65.626 97.2686C65.8265 97.4827 65.986 97.7243 66.1045 97.9932C66.2275 98.262 66.2891 98.5628 66.2891 98.8955C66.2891 99.3148 66.2116 99.6953 66.0566 100.037C65.9062 100.374 65.6921 100.661 65.4141 100.898C65.1406 101.135 64.8102 101.318 64.4229 101.445C64.04 101.573 63.6162 101.637 63.1514 101.637C62.6501 101.637 62.2035 101.575 61.8115 101.452C61.4242 101.329 61.096 101.154 60.8271 100.926C60.5628 100.693 60.36 100.411 60.2188 100.078C60.082 99.7454 60.0137 99.3695 60.0137 98.9502C60.0137 98.6084 60.0638 98.3008 60.1641 98.0273C60.2689 97.7539 60.4079 97.5078 60.5811 97.2891C60.7542 97.0703 60.9593 96.8766 61.1963 96.708C61.4333 96.5394 61.6839 96.3913 61.9482 96.2637C61.7249 96.1224 61.5153 95.9697 61.3193 95.8057C61.1234 95.637 60.9525 95.4502 60.8066 95.2451C60.6654 95.04 60.5514 94.8145 60.4648 94.5684C60.3828 94.3177 60.3418 94.042 60.3418 93.7412C60.3418 93.3447 60.417 92.9984 60.5674 92.7021C60.7223 92.4014 60.9297 92.1507 61.1895 91.9502C61.4492 91.7497 61.7477 91.5993 62.085 91.499C62.4268 91.3988 62.7822 91.3486 63.1514 91.3486ZM61.2373 98.9639C61.2373 99.2054 61.2738 99.4287 61.3467 99.6338C61.4196 99.8343 61.5335 100.007 61.6885 100.153C61.8434 100.295 62.0394 100.406 62.2764 100.488C62.5133 100.566 62.7959 100.604 63.124 100.604C63.443 100.604 63.7233 100.566 63.9648 100.488C64.2109 100.406 64.416 100.292 64.5801 100.146C64.7441 99.9961 64.8672 99.8161 64.9492 99.6064C65.0312 99.3968 65.0723 99.1644 65.0723 98.9092C65.0723 98.6722 65.0267 98.458 64.9355 98.2666C64.849 98.0752 64.7214 97.8975 64.5527 97.7334C64.3887 97.5693 64.1904 97.4144 63.958 97.2686C63.7256 97.1227 63.4658 96.9792 63.1787 96.8379L62.9736 96.7422C62.3994 97.0156 61.9665 97.3301 61.6748 97.6855C61.3831 98.0365 61.2373 98.4626 61.2373 98.9639ZM63.1377 92.3877C62.6546 92.3877 62.2695 92.5085 61.9824 92.75C61.6999 92.9915 61.5586 93.3424 61.5586 93.8027C61.5586 94.0625 61.5973 94.2858 61.6748 94.4727C61.7568 94.6595 61.8685 94.8258 62.0098 94.9717C62.151 95.1175 62.3197 95.2497 62.5156 95.3682C62.7161 95.4821 62.9326 95.5938 63.165 95.7031C63.3838 95.6029 63.5889 95.4935 63.7803 95.375C63.9762 95.2565 64.1449 95.1221 64.2861 94.9717C64.432 94.8213 64.5459 94.6504 64.6279 94.459C64.71 94.2676 64.751 94.0488 64.751 93.8027C64.751 93.3424 64.6074 92.9915 64.3203 92.75C64.0332 92.5085 63.639 92.3877 63.1377 92.3877Z" fill="#828A97"/>
<path d="M54.873 72.4893C54.873 73.2959 54.8138 74.0182 54.6953 74.6562C54.5814 75.2943 54.3945 75.8343 54.1348 76.2764C53.8796 76.7184 53.5492 77.0557 53.1436 77.2881C52.738 77.5205 52.2458 77.6367 51.667 77.6367C51.1292 77.6367 50.6598 77.5205 50.2588 77.2881C49.8623 77.0557 49.5319 76.7184 49.2676 76.2764C49.0078 75.8343 48.8118 75.2943 48.6797 74.6562C48.5521 74.0182 48.4883 73.2959 48.4883 72.4893C48.4883 71.6826 48.5452 70.9603 48.6592 70.3223C48.7777 69.6842 48.9622 69.1465 49.2129 68.709C49.4681 68.2669 49.7962 67.9297 50.1973 67.6973C50.6029 67.4648 51.0928 67.3486 51.667 67.3486C52.2093 67.3486 52.681 67.4648 53.082 67.6973C53.4831 67.9251 53.8158 68.2601 54.0801 68.7021C54.3444 69.1396 54.5426 69.6774 54.6748 70.3154C54.807 70.9535 54.873 71.6781 54.873 72.4893ZM49.7529 72.4893C49.7529 73.1729 49.7871 73.7699 49.8555 74.2803C49.9238 74.7907 50.0332 75.2168 50.1836 75.5586C50.334 75.8958 50.5299 76.151 50.7715 76.3242C51.0176 76.4928 51.3161 76.5771 51.667 76.5771C52.0179 76.5771 52.3164 76.4928 52.5625 76.3242C52.8086 76.1556 53.0091 75.9027 53.1641 75.5654C53.3236 75.2282 53.4375 74.8044 53.5059 74.2939C53.5788 73.779 53.6152 73.1774 53.6152 72.4893C53.6152 71.8057 53.5788 71.2087 53.5059 70.6982C53.4375 70.1878 53.3236 69.764 53.1641 69.4268C53.0091 69.0895 52.8086 68.8366 52.5625 68.668C52.3164 68.4993 52.0179 68.415 51.667 68.415C51.3161 68.415 51.0176 68.4993 50.7715 68.668C50.5299 68.8366 50.334 69.0895 50.1836 69.4268C50.0332 69.764 49.9238 70.1878 49.8555 70.6982C49.7871 71.2087 49.7529 71.8057 49.7529 72.4893ZM56.5342 76.7412C56.5342 76.568 56.557 76.4222 56.6025 76.3037C56.6481 76.1807 56.7096 76.0827 56.7871 76.0098C56.8646 75.9323 56.9557 75.8776 57.0605 75.8457C57.1654 75.8092 57.2793 75.791 57.4023 75.791C57.5208 75.791 57.6325 75.8092 57.7373 75.8457C57.8467 75.8776 57.9401 75.9323 58.0176 76.0098C58.0951 76.0827 58.1566 76.1807 58.2021 76.3037C58.2477 76.4222 58.2705 76.568 58.2705 76.7412C58.2705 76.9098 58.2477 77.0557 58.2021 77.1787C58.1566 77.2972 58.0951 77.3952 58.0176 77.4727C57.9401 77.5501 57.8467 77.6071 57.7373 77.6436C57.6325 77.68 57.5208 77.6982 57.4023 77.6982C57.2793 77.6982 57.1654 77.68 57.0605 77.6436C56.9557 77.6071 56.8646 77.5501 56.7871 77.4727C56.7096 77.3952 56.6481 77.2972 56.6025 77.1787C56.557 77.0557 56.5342 76.9098 56.5342 76.7412ZM66.3164 71.7715C66.3164 72.25 66.2913 72.7285 66.2412 73.207C66.1956 73.681 66.1113 74.1344 65.9883 74.5674C65.8698 75.0003 65.7057 75.4059 65.4961 75.7842C65.2865 76.1579 65.0199 76.4814 64.6963 76.7549C64.3727 77.0283 63.9854 77.2448 63.5342 77.4043C63.083 77.5592 62.5544 77.6367 61.9482 77.6367C61.8617 77.6367 61.766 77.6344 61.6611 77.6299C61.5563 77.6253 61.4515 77.6162 61.3467 77.6025C61.2419 77.5934 61.1393 77.582 61.0391 77.5684C60.9388 77.5547 60.8499 77.5365 60.7725 77.5137V76.4473C60.932 76.5065 61.112 76.5498 61.3125 76.5771C61.513 76.6045 61.7113 76.6182 61.9072 76.6182C62.5225 76.6182 63.0283 76.5111 63.4248 76.2969C63.8213 76.0827 64.1357 75.7933 64.3682 75.4287C64.6006 75.0596 64.7646 74.6312 64.8604 74.1436C64.9606 73.6559 65.0221 73.141 65.0449 72.5986H64.9561C64.8649 72.7627 64.7555 72.9154 64.6279 73.0566C64.5003 73.1979 64.3499 73.321 64.1768 73.4258C64.0036 73.5306 63.8076 73.6126 63.5889 73.6719C63.3701 73.7311 63.1263 73.7607 62.8574 73.7607C62.4245 73.7607 62.0326 73.6947 61.6816 73.5625C61.3307 73.4258 61.0322 73.2275 60.7861 72.9678C60.54 72.708 60.3486 72.3913 60.2119 72.0176C60.0798 71.6393 60.0137 71.2087 60.0137 70.7256C60.0137 70.2061 60.0843 69.7389 60.2256 69.3242C60.3714 68.9049 60.5742 68.5518 60.834 68.2646C61.0983 67.973 61.4173 67.7497 61.791 67.5947C62.1693 67.4398 62.5908 67.3623 63.0557 67.3623C63.516 67.3623 63.9443 67.4512 64.3408 67.6289C64.7373 67.8066 65.0814 68.0778 65.373 68.4424C65.6647 68.807 65.8949 69.2673 66.0635 69.8232C66.2321 70.3747 66.3164 71.0241 66.3164 71.7715ZM63.0693 68.415C62.7959 68.415 62.5452 68.4606 62.3174 68.5518C62.0941 68.6429 61.9004 68.7842 61.7363 68.9756C61.5723 69.167 61.4447 69.4085 61.3535 69.7002C61.2669 69.9873 61.2236 70.3291 61.2236 70.7256C61.2236 71.0446 61.2601 71.3317 61.333 71.5869C61.4105 71.8376 61.5244 72.0518 61.6748 72.2295C61.8252 72.4072 62.012 72.5439 62.2354 72.6396C62.4632 72.7354 62.7275 72.7832 63.0283 72.7832C63.3382 72.7832 63.6185 72.7308 63.8691 72.626C64.1198 72.5166 64.334 72.3776 64.5117 72.209C64.6895 72.0358 64.8262 71.8398 64.9219 71.6211C65.0221 71.4023 65.0723 71.1836 65.0723 70.9648C65.0723 70.6595 65.029 70.3564 64.9424 70.0557C64.8604 69.7503 64.735 69.4769 64.5664 69.2354C64.4023 68.9893 64.195 68.791 63.9443 68.6406C63.6937 68.4902 63.402 68.415 63.0693 68.415Z" fill="#828A97"/>
<path d="M52.6787 53.5H51.4756V47.2588C51.4756 47.0628 51.4756 46.8532 51.4756 46.6299C51.4801 46.4066 51.4847 46.1855 51.4893 45.9668C51.4984 45.7435 51.5052 45.5316 51.5098 45.3311C51.5189 45.126 51.5257 44.946 51.5303 44.791C51.4528 44.873 51.3844 44.9437 51.3252 45.0029C51.266 45.0622 51.2044 45.1191 51.1406 45.1738C51.0814 45.2285 51.0176 45.2878 50.9492 45.3516C50.8809 45.4108 50.7988 45.4814 50.7031 45.5635L49.6914 46.3906L49.0352 45.5498L51.6533 43.5059H52.6787V53.5ZM56.5342 52.7412C56.5342 52.568 56.557 52.4222 56.6025 52.3037C56.6481 52.1807 56.7096 52.0827 56.7871 52.0098C56.8646 51.9323 56.9557 51.8776 57.0605 51.8457C57.1654 51.8092 57.2793 51.791 57.4023 51.791C57.5208 51.791 57.6325 51.8092 57.7373 51.8457C57.8467 51.8776 57.9401 51.9323 58.0176 52.0098C58.0951 52.0827 58.1566 52.1807 58.2021 52.3037C58.2477 52.4222 58.2705 52.568 58.2705 52.7412C58.2705 52.9098 58.2477 53.0557 58.2021 53.1787C58.1566 53.2972 58.0951 53.3952 58.0176 53.4727C57.9401 53.5501 57.8467 53.6071 57.7373 53.6436C57.6325 53.68 57.5208 53.6982 57.4023 53.6982C57.2793 53.6982 57.1654 53.68 57.0605 53.6436C56.9557 53.6071 56.8646 53.5501 56.7871 53.4727C56.7096 53.3952 56.6481 53.2972 56.6025 53.1787C56.557 53.0557 56.5342 52.9098 56.5342 52.7412ZM66.3438 48.4893C66.3438 49.2959 66.2845 50.0182 66.166 50.6562C66.0521 51.2943 65.8652 51.8343 65.6055 52.2764C65.3503 52.7184 65.0199 53.0557 64.6143 53.2881C64.2087 53.5205 63.7165 53.6367 63.1377 53.6367C62.5999 53.6367 62.1305 53.5205 61.7295 53.2881C61.333 53.0557 61.0026 52.7184 60.7383 52.2764C60.4785 51.8343 60.2826 51.2943 60.1504 50.6562C60.0228 50.0182 59.959 49.2959 59.959 48.4893C59.959 47.6826 60.016 46.9603 60.1299 46.3223C60.2484 45.6842 60.4329 45.1465 60.6836 44.709C60.9388 44.2669 61.2669 43.9297 61.668 43.6973C62.0736 43.4648 62.5635 43.3486 63.1377 43.3486C63.68 43.3486 64.1517 43.4648 64.5527 43.6973C64.9538 43.9251 65.2865 44.2601 65.5508 44.7021C65.8151 45.1396 66.0133 45.6774 66.1455 46.3154C66.2777 46.9535 66.3438 47.6781 66.3438 48.4893ZM61.2236 48.4893C61.2236 49.1729 61.2578 49.7699 61.3262 50.2803C61.3945 50.7907 61.5039 51.2168 61.6543 51.5586C61.8047 51.8958 62.0007 52.151 62.2422 52.3242C62.4883 52.4928 62.7868 52.5771 63.1377 52.5771C63.4886 52.5771 63.7871 52.4928 64.0332 52.3242C64.2793 52.1556 64.4798 51.9027 64.6348 51.5654C64.7943 51.2282 64.9082 50.8044 64.9766 50.2939C65.0495 49.779 65.0859 49.1774 65.0859 48.4893C65.0859 47.8057 65.0495 47.2087 64.9766 46.6982C64.9082 46.1878 64.7943 45.764 64.6348 45.4268C64.4798 45.0895 64.2793 44.8366 64.0332 44.668C63.7871 44.4993 63.4886 44.415 63.1377 44.415C62.7868 44.415 62.4883 44.4993 62.2422 44.668C62.0007 44.8366 61.8047 45.0895 61.6543 45.4268C61.5039 45.764 61.3945 46.1878 61.3262 46.6982C61.2578 47.2087 61.2236 47.8057 61.2236 48.4893Z" fill="#828A97"/>
<line x1="102.5" y1="289" x2="102.5" y2="21" stroke="#DFEBF5" stroke-dasharray="8 8"/>
<line x1="294.5" y1="289" x2="294.5" y2="21" stroke="#DFEBF5" stroke-dasharray="8 8"/>
<line x1="198.5" y1="289" x2="198.5" y2="21" stroke="#DFEBF5" stroke-dasharray="8 8"/>
<line x1="390.5" y1="289" x2="390.5" y2="21" stroke="#DFEBF5" stroke-dasharray="8 8"/>
<line x1="486.5" y1="289" x2="486.5" y2="21" stroke="#DFEBF5" stroke-dasharray="8 8"/>
<line x1="150.5" y1="289" x2="150.5" y2="21" stroke="#DFEBF5" stroke-dasharray="8 8"/>
<line x1="342.5" y1="289" x2="342.5" y2="21" stroke="#DFEBF5" stroke-dasharray="8 8"/>
<line x1="246.5" y1="289" x2="246.5" y2="21" stroke="#DFEBF5" stroke-dasharray="8 8"/>
<line x1="438.5" y1="289" x2="438.5" y2="21" stroke="#DFEBF5" stroke-dasharray="8 8"/>
<line x1="534.5" y1="289" x2="534.5" y2="21" stroke="#DFEBF5" stroke-dasharray="8 8"/>
<line x1="71" y1="264.5" x2="584" y2="264.5" stroke="#DFEBF5" stroke-dasharray="8 8"/>
<line x1="71" y1="216.5" x2="584" y2="216.5" stroke="#DFEBF5" stroke-dasharray="8 8"/>
<line x1="71" y1="120.5" x2="584" y2="120.5" stroke="#DFEBF5" stroke-dasharray="8 8"/>
<line x1="71" y1="168.5" x2="584" y2="168.5" stroke="#DFEBF5" stroke-dasharray="8 8"/>
<line x1="71" y1="72.5" x2="584" y2="72.4999" stroke="#DFEBF5" stroke-dasharray="8 8"/>
<line x1="71" y1="48.5" x2="584" y2="48.5" stroke="#DFEBF5" stroke-dasharray="8 8"/>
<line x1="71" y1="240.5" x2="584" y2="240.5" stroke="#DFEBF5" stroke-dasharray="8 8"/>
<line x1="71" y1="192.5" x2="584" y2="192.5" stroke="#DFEBF5" stroke-dasharray="8 8"/>
<line x1="71" y1="96.5" x2="584" y2="96.4999" stroke="#DFEBF5" stroke-dasharray="8 8"/>
<line x1="71" y1="144.5" x2="584" y2="144.5" stroke="#DFEBF5" stroke-dasharray="8 8"/>
<path d="M103.005 307H101.802V300.759C101.802 300.563 101.802 300.353 101.802 300.13C101.806 299.907 101.811 299.686 101.815 299.467C101.825 299.243 101.831 299.032 101.836 298.831C101.845 298.626 101.852 298.446 101.856 298.291C101.779 298.373 101.711 298.444 101.651 298.503C101.592 298.562 101.531 298.619 101.467 298.674C101.408 298.729 101.344 298.788 101.275 298.852C101.207 298.911 101.125 298.981 101.029 299.063L100.018 299.891L99.3613 299.05L101.979 297.006H103.005V307Z" fill="#828A97"/>
<path d="M294.87 300.868C295.321 300.868 295.741 300.932 296.128 301.06C296.52 301.183 296.859 301.367 297.146 301.613C297.438 301.859 297.666 302.165 297.83 302.529C297.994 302.894 298.076 303.315 298.076 303.794C298.076 304.313 297.999 304.781 297.844 305.195C297.689 305.61 297.459 305.961 297.153 306.248C296.848 306.535 296.47 306.756 296.019 306.911C295.572 307.062 295.057 307.137 294.474 307.137C294.241 307.137 294.011 307.125 293.783 307.103C293.56 307.08 293.343 307.046 293.134 307C292.929 306.959 292.733 306.904 292.546 306.836C292.359 306.768 292.19 306.688 292.04 306.597V305.421C292.19 305.526 292.366 305.619 292.566 305.701C292.771 305.783 292.986 305.852 293.209 305.906C293.432 305.961 293.656 306.004 293.879 306.036C294.107 306.063 294.316 306.077 294.508 306.077C294.868 306.077 295.189 306.036 295.472 305.954C295.754 305.868 295.993 305.735 296.189 305.558C296.385 305.38 296.536 305.157 296.641 304.888C296.745 304.619 296.798 304.3 296.798 303.931C296.798 303.279 296.597 302.782 296.196 302.44C295.795 302.094 295.212 301.921 294.446 301.921C294.323 301.921 294.189 301.928 294.043 301.941C293.902 301.951 293.758 301.964 293.612 301.982C293.471 302.001 293.334 302.021 293.202 302.044C293.075 302.062 292.963 302.08 292.867 302.099L292.252 301.709L292.628 297.006H297.345V298.141H293.708L293.441 301.005C293.587 300.978 293.779 300.948 294.016 300.916C294.257 300.884 294.542 300.868 294.87 300.868Z" fill="#828A97"/>
<path d="M201.714 299.344C201.714 299.676 201.661 299.979 201.557 300.253C201.452 300.526 201.304 300.763 201.112 300.964C200.925 301.164 200.7 301.331 200.436 301.463C200.171 301.59 199.877 301.682 199.554 301.736V301.777C200.36 301.878 200.973 302.135 201.393 302.55C201.812 302.96 202.021 303.495 202.021 304.156C202.021 304.594 201.946 304.995 201.796 305.359C201.65 305.724 201.427 306.038 201.126 306.303C200.825 306.567 200.445 306.772 199.984 306.918C199.524 307.064 198.979 307.137 198.351 307.137C197.854 307.137 197.384 307.098 196.942 307.021C196.505 306.943 196.092 306.802 195.705 306.597V305.435C196.102 305.644 196.53 305.806 196.99 305.92C197.455 306.034 197.899 306.091 198.323 306.091C198.743 306.091 199.105 306.045 199.41 305.954C199.715 305.863 199.966 305.733 200.162 305.564C200.363 305.396 200.508 305.188 200.6 304.942C200.695 304.696 200.743 304.421 200.743 304.115C200.743 303.805 200.682 303.541 200.559 303.322C200.44 303.099 200.269 302.917 200.046 302.775C199.823 302.63 199.549 302.522 199.226 302.454C198.907 302.386 198.544 302.352 198.139 302.352H197.229V301.319H198.139C198.508 301.319 198.836 301.274 199.123 301.183C199.41 301.091 199.649 300.962 199.841 300.793C200.037 300.624 200.185 300.424 200.285 300.191C200.385 299.959 200.436 299.704 200.436 299.426C200.436 299.189 200.395 298.977 200.312 298.79C200.23 298.603 200.114 298.446 199.964 298.318C199.813 298.186 199.633 298.086 199.424 298.018C199.214 297.949 198.982 297.915 198.727 297.915C198.239 297.915 197.808 297.993 197.435 298.147C197.065 298.298 196.712 298.496 196.375 298.742L195.746 297.888C195.919 297.746 196.111 297.614 196.32 297.491C196.535 297.368 196.767 297.261 197.018 297.17C197.268 297.074 197.535 296.999 197.817 296.944C198.104 296.89 198.408 296.862 198.727 296.862C199.219 296.862 199.649 296.924 200.019 297.047C200.392 297.17 200.704 297.343 200.955 297.566C201.206 297.785 201.395 298.047 201.522 298.353C201.65 298.653 201.714 298.984 201.714 299.344Z" fill="#828A97"/>
<path d="M388.065 307L391.914 298.141H386.76V297.006H393.186V297.997L389.392 307H388.065Z" fill="#828A97"/>
<path d="M154.035 307H147.801V305.934L150.193 303.329C150.535 302.96 150.84 302.623 151.109 302.317C151.378 302.012 151.606 301.714 151.793 301.422C151.984 301.13 152.13 300.839 152.23 300.547C152.331 300.251 152.381 299.929 152.381 299.583C152.381 299.314 152.342 299.077 152.265 298.872C152.187 298.667 152.076 298.494 151.93 298.353C151.788 298.207 151.62 298.097 151.424 298.024C151.228 297.951 151.009 297.915 150.768 297.915C150.335 297.915 149.943 298.004 149.592 298.182C149.245 298.355 148.915 298.578 148.601 298.852L147.903 298.038C148.086 297.874 148.282 297.721 148.491 297.58C148.701 297.434 148.926 297.309 149.168 297.204C149.41 297.099 149.665 297.017 149.934 296.958C150.202 296.894 150.485 296.862 150.781 296.862C151.219 296.862 151.613 296.924 151.964 297.047C152.319 297.17 152.62 297.348 152.866 297.58C153.112 297.808 153.301 298.088 153.434 298.421C153.57 298.749 153.639 299.12 153.639 299.535C153.639 299.923 153.577 300.292 153.454 300.643C153.336 300.993 153.169 301.34 152.955 301.682C152.745 302.019 152.493 302.358 152.196 302.7C151.905 303.042 151.588 303.397 151.246 303.767L149.325 305.811V305.865H154.035V307Z" fill="#828A97"/>
<path d="M338.917 302.728C338.917 302.249 338.94 301.773 338.985 301.299C339.035 300.825 339.12 300.371 339.238 299.938C339.361 299.501 339.528 299.095 339.737 298.722C339.947 298.348 340.214 298.024 340.537 297.751C340.861 297.473 341.248 297.257 341.699 297.102C342.15 296.942 342.679 296.862 343.285 296.862C343.372 296.862 343.467 296.865 343.572 296.869C343.677 296.874 343.782 296.883 343.887 296.896C343.996 296.906 344.099 296.919 344.194 296.938C344.295 296.951 344.383 296.969 344.461 296.992V298.052C344.301 297.997 344.121 297.956 343.921 297.929C343.72 297.901 343.522 297.888 343.326 297.888C342.916 297.888 342.554 297.938 342.239 298.038C341.929 298.134 341.66 298.271 341.433 298.448C341.205 298.626 341.013 298.838 340.858 299.084C340.708 299.33 340.585 299.604 340.489 299.904C340.394 300.201 340.323 300.517 340.277 300.854C340.232 301.192 340.202 301.543 340.188 301.907H340.271C340.362 301.743 340.471 301.59 340.599 301.449C340.731 301.303 340.883 301.18 341.057 301.08C341.23 300.975 341.424 300.893 341.638 300.834C341.856 300.775 342.1 300.745 342.369 300.745C342.802 300.745 343.194 300.813 343.545 300.95C343.896 301.082 344.194 301.278 344.44 301.538C344.687 301.798 344.876 302.117 345.008 302.495C345.145 302.869 345.213 303.297 345.213 303.78C345.213 304.3 345.142 304.767 345.001 305.182C344.86 305.596 344.657 305.95 344.393 306.241C344.128 306.528 343.809 306.749 343.436 306.904C343.062 307.059 342.643 307.137 342.178 307.137C341.722 307.137 341.294 307.048 340.893 306.87C340.496 306.692 340.152 306.421 339.86 306.057C339.569 305.692 339.339 305.234 339.17 304.683C339.001 304.131 338.917 303.479 338.917 302.728ZM342.164 306.091C342.438 306.091 342.686 306.045 342.909 305.954C343.137 305.858 343.333 305.717 343.497 305.53C343.661 305.339 343.786 305.1 343.873 304.812C343.964 304.521 344.01 304.177 344.01 303.78C344.01 303.461 343.971 303.176 343.894 302.926C343.821 302.671 343.709 302.454 343.559 302.276C343.408 302.099 343.219 301.962 342.991 301.866C342.768 301.771 342.506 301.723 342.205 301.723C341.9 301.723 341.619 301.777 341.364 301.887C341.114 301.992 340.899 302.131 340.722 302.304C340.544 302.472 340.405 302.666 340.305 302.885C340.209 303.104 340.161 303.322 340.161 303.541C340.161 303.846 340.202 304.152 340.284 304.457C340.371 304.758 340.496 305.029 340.66 305.271C340.829 305.512 341.038 305.71 341.289 305.865C341.54 306.016 341.831 306.091 342.164 306.091Z" fill="#828A97"/>
<path d="M249.575 304.758H248.119V307H246.916V304.758H242.302V303.671L246.834 296.951H248.119V303.623H249.575V304.758ZM246.916 303.623V301.189C246.916 300.934 246.918 300.668 246.923 300.39C246.932 300.107 246.941 299.834 246.95 299.569C246.959 299.3 246.968 299.05 246.978 298.817C246.991 298.585 247 298.391 247.005 298.236H246.943C246.911 298.327 246.87 298.43 246.82 298.544C246.775 298.653 246.722 298.765 246.663 298.879C246.608 298.988 246.551 299.095 246.492 299.2C246.433 299.305 246.378 299.394 246.328 299.467L243.519 303.623H246.916Z" fill="#828A97"/>
<path d="M438.007 296.849C438.39 296.849 438.75 296.899 439.087 296.999C439.429 297.099 439.727 297.25 439.982 297.45C440.242 297.651 440.447 297.901 440.598 298.202C440.748 298.503 440.823 298.854 440.823 299.255C440.823 299.56 440.778 299.836 440.687 300.082C440.595 300.328 440.47 300.551 440.311 300.752C440.151 300.948 439.962 301.126 439.743 301.285C439.524 301.44 439.287 301.581 439.032 301.709C439.297 301.85 439.554 302.007 439.805 302.181C440.06 302.354 440.285 302.55 440.481 302.769C440.682 302.983 440.841 303.224 440.96 303.493C441.083 303.762 441.145 304.063 441.145 304.396C441.145 304.815 441.067 305.195 440.912 305.537C440.762 305.874 440.548 306.161 440.27 306.398C439.996 306.635 439.666 306.818 439.278 306.945C438.896 307.073 438.472 307.137 438.007 307.137C437.506 307.137 437.059 307.075 436.667 306.952C436.28 306.829 435.951 306.654 435.683 306.426C435.418 306.193 435.215 305.911 435.074 305.578C434.938 305.245 434.869 304.869 434.869 304.45C434.869 304.108 434.919 303.801 435.02 303.527C435.124 303.254 435.263 303.008 435.437 302.789C435.61 302.57 435.815 302.377 436.052 302.208C436.289 302.039 436.539 301.891 436.804 301.764C436.58 301.622 436.371 301.47 436.175 301.306C435.979 301.137 435.808 300.95 435.662 300.745C435.521 300.54 435.407 300.314 435.32 300.068C435.238 299.818 435.197 299.542 435.197 299.241C435.197 298.845 435.272 298.498 435.423 298.202C435.578 297.901 435.785 297.651 436.045 297.45C436.305 297.25 436.603 297.099 436.94 296.999C437.282 296.899 437.638 296.849 438.007 296.849ZM436.093 304.464C436.093 304.705 436.129 304.929 436.202 305.134C436.275 305.334 436.389 305.507 436.544 305.653C436.699 305.795 436.895 305.906 437.132 305.988C437.369 306.066 437.651 306.104 437.979 306.104C438.299 306.104 438.579 306.066 438.82 305.988C439.066 305.906 439.271 305.792 439.436 305.646C439.6 305.496 439.723 305.316 439.805 305.106C439.887 304.897 439.928 304.664 439.928 304.409C439.928 304.172 439.882 303.958 439.791 303.767C439.704 303.575 439.577 303.397 439.408 303.233C439.244 303.069 439.046 302.914 438.813 302.769C438.581 302.623 438.321 302.479 438.034 302.338L437.829 302.242C437.255 302.516 436.822 302.83 436.53 303.186C436.239 303.536 436.093 303.963 436.093 304.464ZM437.993 297.888C437.51 297.888 437.125 298.008 436.838 298.25C436.555 298.492 436.414 298.842 436.414 299.303C436.414 299.562 436.453 299.786 436.53 299.973C436.612 300.16 436.724 300.326 436.865 300.472C437.007 300.618 437.175 300.75 437.371 300.868C437.572 300.982 437.788 301.094 438.021 301.203C438.239 301.103 438.444 300.993 438.636 300.875C438.832 300.757 439 300.622 439.142 300.472C439.287 300.321 439.401 300.15 439.483 299.959C439.565 299.768 439.606 299.549 439.606 299.303C439.606 298.842 439.463 298.492 439.176 298.25C438.889 298.008 438.494 297.888 437.993 297.888Z" fill="#828A97"/>
<path d="M490.172 301.271C490.172 301.75 490.147 302.229 490.097 302.707C490.051 303.181 489.967 303.634 489.844 304.067C489.725 304.5 489.561 304.906 489.352 305.284C489.142 305.658 488.875 305.981 488.552 306.255C488.228 306.528 487.841 306.745 487.39 306.904C486.938 307.059 486.41 307.137 485.804 307.137C485.717 307.137 485.621 307.134 485.517 307.13C485.412 307.125 485.307 307.116 485.202 307.103C485.097 307.093 484.995 307.082 484.895 307.068C484.794 307.055 484.705 307.036 484.628 307.014V305.947C484.787 306.007 484.967 306.05 485.168 306.077C485.368 306.104 485.567 306.118 485.763 306.118C486.378 306.118 486.884 306.011 487.28 305.797C487.677 305.583 487.991 305.293 488.224 304.929C488.456 304.56 488.62 304.131 488.716 303.644C488.816 303.156 488.878 302.641 488.9 302.099H488.812C488.72 302.263 488.611 302.415 488.483 302.557C488.356 302.698 488.205 302.821 488.032 302.926C487.859 303.031 487.663 303.113 487.444 303.172C487.226 303.231 486.982 303.261 486.713 303.261C486.28 303.261 485.888 303.195 485.537 303.062C485.186 302.926 484.888 302.728 484.642 302.468C484.396 302.208 484.204 301.891 484.067 301.518C483.935 301.139 483.869 300.709 483.869 300.226C483.869 299.706 483.94 299.239 484.081 298.824C484.227 298.405 484.43 298.052 484.689 297.765C484.954 297.473 485.273 297.25 485.646 297.095C486.025 296.94 486.446 296.862 486.911 296.862C487.371 296.862 487.8 296.951 488.196 297.129C488.593 297.307 488.937 297.578 489.229 297.942C489.52 298.307 489.75 298.767 489.919 299.323C490.088 299.875 490.172 300.524 490.172 301.271ZM486.925 297.915C486.651 297.915 486.401 297.961 486.173 298.052C485.95 298.143 485.756 298.284 485.592 298.476C485.428 298.667 485.3 298.909 485.209 299.2C485.122 299.487 485.079 299.829 485.079 300.226C485.079 300.545 485.116 300.832 485.188 301.087C485.266 301.338 485.38 301.552 485.53 301.729C485.681 301.907 485.868 302.044 486.091 302.14C486.319 302.235 486.583 302.283 486.884 302.283C487.194 302.283 487.474 302.231 487.725 302.126C487.975 302.017 488.189 301.878 488.367 301.709C488.545 301.536 488.682 301.34 488.777 301.121C488.878 300.902 488.928 300.684 488.928 300.465C488.928 300.16 488.884 299.856 488.798 299.556C488.716 299.25 488.59 298.977 488.422 298.735C488.258 298.489 488.05 298.291 487.8 298.141C487.549 297.99 487.257 297.915 486.925 297.915Z" fill="#828A97"/>
<path d="M531.149 307H529.946V300.759C529.946 300.563 529.946 300.353 529.946 300.13C529.951 299.907 529.955 299.686 529.96 299.467C529.969 299.243 529.976 299.032 529.98 298.831C529.99 298.626 529.996 298.446 530.001 298.291C529.924 298.373 529.855 298.444 529.796 298.503C529.737 298.562 529.675 298.619 529.611 298.674C529.552 298.729 529.488 298.788 529.42 298.852C529.352 298.911 529.27 298.981 529.174 299.063L528.162 299.891L527.506 299.05L530.124 297.006H531.149V307ZM541.055 301.989C541.055 302.796 540.995 303.518 540.877 304.156C540.763 304.794 540.576 305.334 540.316 305.776C540.061 306.218 539.731 306.556 539.325 306.788C538.92 307.021 538.427 307.137 537.849 307.137C537.311 307.137 536.841 307.021 536.44 306.788C536.044 306.556 535.714 306.218 535.449 305.776C535.189 305.334 534.993 304.794 534.861 304.156C534.734 303.518 534.67 302.796 534.67 301.989C534.67 301.183 534.727 300.46 534.841 299.822C534.959 299.184 535.144 298.646 535.395 298.209C535.65 297.767 535.978 297.43 536.379 297.197C536.785 296.965 537.274 296.849 537.849 296.849C538.391 296.849 538.863 296.965 539.264 297.197C539.665 297.425 539.997 297.76 540.262 298.202C540.526 298.64 540.724 299.177 540.856 299.815C540.989 300.453 541.055 301.178 541.055 301.989ZM535.935 301.989C535.935 302.673 535.969 303.27 536.037 303.78C536.105 304.291 536.215 304.717 536.365 305.059C536.516 305.396 536.712 305.651 536.953 305.824C537.199 305.993 537.498 306.077 537.849 306.077C538.2 306.077 538.498 305.993 538.744 305.824C538.99 305.656 539.191 305.403 539.346 305.065C539.505 304.728 539.619 304.304 539.688 303.794C539.76 303.279 539.797 302.677 539.797 301.989C539.797 301.306 539.76 300.709 539.688 300.198C539.619 299.688 539.505 299.264 539.346 298.927C539.191 298.59 538.99 298.337 538.744 298.168C538.498 297.999 538.2 297.915 537.849 297.915C537.498 297.915 537.199 297.999 536.953 298.168C536.712 298.337 536.516 298.59 536.365 298.927C536.215 299.264 536.105 299.688 536.037 300.198C535.969 300.709 535.935 301.306 535.935 301.989Z" fill="#828A97"/>
<path d="M559.664 297.006V298.127H555.282V307H554.024V297.006H559.664ZM567.238 303.233C567.238 304.459 566.928 305.416 566.309 306.104C565.689 306.793 564.832 307.137 563.738 307.137C563.059 307.137 562.458 306.979 561.934 306.665C561.41 306.346 561.006 305.89 560.724 305.298C560.441 304.705 560.3 304.017 560.3 303.233C560.3 302.012 560.605 301.062 561.216 300.383C561.826 299.699 562.683 299.357 563.786 299.357C564.843 299.357 565.682 299.706 566.302 300.403C566.926 301.096 567.238 302.039 567.238 303.233ZM561.571 303.233C561.571 304.177 561.756 304.895 562.125 305.387C562.499 305.874 563.048 306.118 563.772 306.118C564.488 306.118 565.033 305.874 565.406 305.387C565.78 304.895 565.967 304.177 565.967 303.233C565.967 302.29 565.778 301.581 565.399 301.107C565.026 300.629 564.477 300.39 563.752 300.39C562.298 300.39 561.571 301.338 561.571 303.233ZM575.858 309.604H574.669V307H569.446V309.604H568.271V305.961H568.872C569.478 305.118 569.95 304.143 570.287 303.035C570.624 301.923 570.802 300.743 570.82 299.494H574.765V305.961H575.858V309.604ZM573.575 305.961V300.465H571.907C571.839 301.472 571.643 302.484 571.319 303.5C571 304.512 570.608 305.332 570.144 305.961H573.575ZM581.963 307L581.724 305.934H581.669C581.295 306.403 580.922 306.722 580.548 306.891C580.179 307.055 579.712 307.137 579.146 307.137C578.408 307.137 577.829 306.943 577.41 306.556C576.991 306.168 576.781 305.621 576.781 304.915C576.781 303.393 577.982 302.595 580.384 302.522L581.655 302.475V302.03C581.655 301.461 581.532 301.041 581.286 300.772C581.04 300.499 580.646 300.362 580.104 300.362C579.707 300.362 579.331 300.422 578.976 300.54C578.625 300.659 578.294 300.791 577.984 300.937L577.608 300.014C577.987 299.813 578.399 299.656 578.846 299.542C579.292 299.428 579.734 299.371 580.172 299.371C581.079 299.371 581.753 299.572 582.195 299.973C582.637 300.374 582.858 301.012 582.858 301.887V307H581.963ZM579.427 306.146C580.115 306.146 580.655 305.961 581.047 305.592C581.443 305.218 581.642 304.689 581.642 304.006V303.329L580.534 303.377C579.673 303.409 579.044 303.546 578.647 303.787C578.256 304.029 578.06 304.409 578.06 304.929C578.06 305.321 578.178 305.621 578.415 305.831C578.657 306.041 578.994 306.146 579.427 306.146Z" fill="#828A97"/>
<path d="M10.9189 6.34375C10.9189 6.99089 10.7116 7.52181 10.2969 7.93652C9.88216 8.34668 9.30111 8.60872 8.55371 8.72266V8.77734C9.40137 8.89128 10.0417 9.15332 10.4746 9.56348C10.9121 9.97363 11.1309 10.5091 11.1309 11.1699C11.1309 12.1042 10.7777 12.8333 10.0713 13.3574C9.36491 13.877 8.3737 14.1367 7.09766 14.1367C5.89909 14.1367 4.92839 13.9567 4.18555 13.5967V12.4482C4.63672 12.6624 5.11979 12.8265 5.63477 12.9404C6.1543 13.0498 6.63737 13.1045 7.08398 13.1045C7.98633 13.1045 8.66536 12.9382 9.12109 12.6055C9.58138 12.2728 9.81152 11.7943 9.81152 11.1699C9.81152 10.5729 9.55404 10.1217 9.03906 9.81641C8.52409 9.50651 7.75618 9.35156 6.73535 9.35156H5.30664V8.29883H6.66016C7.64909 8.29883 8.38737 8.13477 8.875 7.80664C9.36719 7.47396 9.61328 7.02734 9.61328 6.4668C9.61328 5.98372 9.43099 5.60319 9.06641 5.3252C8.70638 5.04264 8.21875 4.90137 7.60352 4.90137C7.08398 4.90137 6.61458 4.96289 6.19531 5.08594C5.7806 5.20898 5.32487 5.43229 4.82812 5.75586L4.22656 4.90137C5.18815 4.20866 6.31836 3.8623 7.61719 3.8623C8.64258 3.8623 9.44922 4.08561 10.0371 4.53223C10.625 4.97884 10.9189 5.58268 10.9189 6.34375ZM14.3027 6.49414V9.61816H18.377V6.49414H19.6074V14H18.377V10.6572H14.3027V14H13.0723V6.49414H14.3027ZM26.6348 14L26.3955 12.9336H26.3408C25.9671 13.403 25.5934 13.722 25.2197 13.8906C24.8506 14.0547 24.3835 14.1367 23.8184 14.1367C23.0801 14.1367 22.5013 13.943 22.082 13.5557C21.6628 13.1683 21.4531 12.6214 21.4531 11.915C21.4531 10.3929 22.654 9.59538 25.0557 9.52246L26.3271 9.47461V9.03027C26.3271 8.46061 26.2041 8.04134 25.958 7.77246C25.7119 7.49902 25.3177 7.3623 24.7754 7.3623C24.3789 7.3623 24.0029 7.42155 23.6475 7.54004C23.2965 7.65853 22.9661 7.79069 22.6562 7.93652L22.2803 7.01367C22.6585 6.81315 23.071 6.65592 23.5176 6.54199C23.9642 6.42806 24.4062 6.37109 24.8438 6.37109C25.7507 6.37109 26.4251 6.57161 26.8672 6.97266C27.3092 7.3737 27.5303 8.01172 27.5303 8.88672V14H26.6348ZM24.0986 13.1455C24.7868 13.1455 25.3268 12.9609 25.7188 12.5918C26.1152 12.2181 26.3135 11.6895 26.3135 11.0059V10.3291L25.2061 10.377C24.3447 10.4089 23.7158 10.5456 23.3193 10.7871C22.9274 11.0286 22.7314 11.4092 22.7314 11.9287C22.7314 12.3206 22.8499 12.6214 23.0869 12.8311C23.3285 13.0407 23.6657 13.1455 24.0986 13.1455ZM30.9414 6.49414V9.22852C30.9414 10.0853 31.4222 10.5137 32.3838 10.5137C32.8031 10.5137 33.1995 10.4521 33.5732 10.3291C33.9515 10.2015 34.3708 9.99642 34.8311 9.71387V6.49414H36.0615V14H34.8311V10.6572C34.3298 10.9808 33.8763 11.2064 33.4707 11.334C33.0697 11.4616 32.623 11.5254 32.1309 11.5254C31.3835 11.5254 30.7933 11.3294 30.3604 10.9375C29.9274 10.5456 29.7109 10.0033 29.7109 9.31055V6.49414H30.9414ZM41.6396 14.1367C40.514 14.1367 39.6299 13.7972 38.9873 13.1182C38.3493 12.4346 38.0303 11.4958 38.0303 10.3018C38.0303 9.09863 38.3288 8.1416 38.9258 7.43066C39.5228 6.71517 40.3294 6.35742 41.3457 6.35742C42.2891 6.35742 43.041 6.66276 43.6016 7.27344C44.1621 7.87956 44.4424 8.70215 44.4424 9.74121V10.4863H39.3018C39.3245 11.3385 39.541 11.9857 39.9512 12.4277C40.3613 12.8698 40.9424 13.0908 41.6943 13.0908C42.0954 13.0908 42.4759 13.0566 42.8359 12.9883C43.196 12.9154 43.6175 12.7764 44.1006 12.5713V13.6514C43.6859 13.8291 43.2962 13.9544 42.9316 14.0273C42.5671 14.1003 42.1364 14.1367 41.6396 14.1367ZM41.332 7.3623C40.7441 7.3623 40.2793 7.55143 39.9375 7.92969C39.5957 8.30794 39.3929 8.83431 39.3291 9.50879H43.1504C43.1413 8.80697 42.9795 8.27376 42.665 7.90918C42.3506 7.5446 41.9062 7.3623 41.332 7.3623ZM47.5801 6.49414V9.61816H51.6543V6.49414H52.8848V14H51.6543V10.6572H47.5801V14H46.3496V6.49414H47.5801ZM56.4395 6.49414V11.0742L56.3848 12.4004L56.3574 12.7832L60.377 6.49414H61.8877V14H60.7393V9.57715L60.7598 8.62695L60.7939 7.72461L56.8018 14H55.2773V6.49414H56.4395ZM67.4795 14.1367C66.3538 14.1367 65.4697 13.7972 64.8271 13.1182C64.1891 12.4346 63.8701 11.4958 63.8701 10.3018C63.8701 9.09863 64.1686 8.1416 64.7656 7.43066C65.3626 6.71517 66.1693 6.35742 67.1855 6.35742C68.1289 6.35742 68.8809 6.66276 69.4414 7.27344C70.002 7.87956 70.2822 8.70215 70.2822 9.74121V10.4863H65.1416C65.1644 11.3385 65.3809 11.9857 65.791 12.4277C66.2012 12.8698 66.7822 13.0908 67.5342 13.0908C67.9352 13.0908 68.3158 13.0566 68.6758 12.9883C69.0358 12.9154 69.4574 12.7764 69.9404 12.5713V13.6514C69.5257 13.8291 69.1361 13.9544 68.7715 14.0273C68.4069 14.1003 67.9762 14.1367 67.4795 14.1367ZM67.1719 7.3623C66.584 7.3623 66.1191 7.55143 65.7773 7.92969C65.4355 8.30794 65.2327 8.83431 65.1689 9.50879H68.9902C68.9811 8.80697 68.8193 8.27376 68.5049 7.90918C68.1904 7.5446 67.7461 7.3623 67.1719 7.3623Z" fill="#828A97"/>
<path d="M71 21V288C71 289.105 71.8954 290 73 290H584" stroke="#B7C6D8" stroke-linecap="round"/>
<path opacity="0.2" d="M156.444 75.2799L105.883 50.4174C104.554 49.7639 103 50.7312 103 52.2122V285C103 286.105 103.895 287 105 287H582C583.105 287 584 286.105 584 285V278.921C584 278.011 583.386 277.216 582.506 276.986L530.545 263.411C530.293 263.345 530.055 263.23 529.847 263.073L477.42 223.569C477.216 223.415 476.984 223.302 476.738 223.235L423.962 208.98C423.766 208.927 423.58 208.845 423.409 208.736L370.447 174.991C370.298 174.896 370.137 174.821 369.968 174.768L317.119 158.298C316.893 158.227 316.682 158.117 316.494 157.973L263.149 116.897C263.011 116.79 262.858 116.702 262.697 116.634L209.496 94.5272L156.444 75.2799Z" fill="url(#paint0_linear)"/>
<rect x="96" y="48.5718" width="10" height="10" rx="3" transform="rotate(-45 96 48.5718)" fill="#FFD42C"/>
<rect x="144" y="72.5718" width="10" height="10" rx="3" transform="rotate(-45 144 72.5718)" fill="#FFD42C"/>
<rect x="192" y="90.0713" width="10" height="10" rx="3" transform="rotate(-45 192 90.0713)" fill="#FFD42C"/>
<rect x="240" y="110.071" width="10" height="10" rx="3" transform="rotate(-45 240 110.071)" fill="#FFD42C"/>
<rect x="288" y="141.071" width="10" height="10" rx="3" transform="rotate(-45 288 141.071)" fill="#FFD42C"/>
<rect x="336" y="165.071" width="10" height="10" rx="3" transform="rotate(-45 336 165.071)" fill="#FFD42C"/>
<rect x="384" y="187.071" width="10" height="10" rx="3" transform="rotate(-45 384 187.071)" fill="#FFD42C"/>
<rect x="432" y="212.071" width="10" height="10" rx="3" transform="rotate(-45 432 212.071)" fill="#FFD42C"/>
<rect x="480" y="230.071" width="10" height="10" rx="3" transform="rotate(-45 480 230.071)" fill="#FFD42C"/>
<rect x="528" y="263.071" width="10" height="10" rx="3" transform="rotate(-45 528 263.071)" fill="#FFD42C"/>
<path d="M103 49L156.444 75.2366L209.496 94.4522L262.697 116.523C262.858 116.59 263.011 116.678 263.149 116.785L316.494 157.793C316.682 157.938 316.893 158.047 317.119 158.118L369.968 174.561C370.137 174.614 370.298 174.688 370.447 174.783L423.409 208.473C423.58 208.582 423.766 208.664 423.962 208.716L476.738 222.948C476.985 223.014 477.216 223.127 477.42 223.281L529.847 262.721C530.055 262.877 530.292 262.992 530.545 263.058L584 277" stroke="#FFD42C" stroke-width="2" stroke-linecap="round"/>
<defs>
<linearGradient id="paint0_linear" x1="343.5" y1="49" x2="343.5" y2="287" gradientUnits="userSpaceOnUse">
<stop stop-color="#FFD42C"/>
<stop offset="1" stop-color="#FFD42C" stop-opacity="0"/>
</linearGradient>
</defs>
</svg>
