<svg width="203" height="81" viewBox="0 0 203 81" fill="none" xmlns="http://www.w3.org/2000/svg">
<path d="M81.6782 47.4194V18.0098H74.3535V54.7724H105.412L99.3343 47.4194H81.6782Z" fill="white"/>
<path d="M192.728 18.0098V42.4832L172.461 18.0098H165.137V25.2675L169.206 30.2232H165.137V54.7724H172.461V30.2469L192.728 54.7724H200V18.0098H192.728Z" fill="#ED1C24"/>
<path d="M33.3145 18.0098H6.74551L0.668058 25.3621H22.3796L0.458984 47.4194V54.7724H33.3145V47.4194H11.3929L33.3145 25.3621V18.0098Z" fill="white"/>
<path d="M139.483 18.0098V40.1199L134.042 47.4194L128.496 40.3041V18.0098H121.172V40.1199L115.783 47.4194L110.237 40.2885V18.0098H102.913V43.7964L112.068 54.7724H119.393L124.834 48.2075L130.379 54.7724H137.704L146.755 43.7964V18.0098H139.483Z" fill="#ED1C24"/>
<path d="M69.3725 18.0098H38.2954V54.7724H69.3725V47.4194H45.6194V40.1199H67.5413V32.7676H49.6848L45.618 36.2241L45.6194 25.3621H69.3725V18.0098Z" fill="white"/>
<path d="M148.973 30.2232H151.826V54.7724H159.151V30.2232V18.0098L148.973 30.2232Z" fill="#ED1C24"/>
<path d="M141.639 11.9396H139.962L139.962 0.823877H146.262V2.23637H141.639V5.81367H144.867L143.595 7.22617H141.639V11.9396Z" fill="#ED1C24"/>
<path d="M149.612 0.363281C149.862 0.363281 150.082 0.43493 150.27 0.578226C150.458 0.721523 150.552 0.962056 150.552 1.29983C150.552 1.62736 150.458 1.8679 150.27 2.02143C150.082 2.16472 149.862 2.23637 149.612 2.23637C149.34 2.23637 149.11 2.16472 148.922 2.02143C148.744 1.8679 148.656 1.62736 148.656 1.29983C148.656 0.962056 148.744 0.721523 148.922 0.578226C149.11 0.43493 149.34 0.363281 149.612 0.363281ZM150.426 3.51069V11.9396H148.765V3.51069H150.426Z" fill="#ED1C24"/>
<path d="M158.025 3.35716C159.007 3.35716 159.76 3.59769 160.282 4.07876C160.804 4.55983 161.066 5.3326 161.066 6.39709V11.9396H159.42V6.62739C159.42 5.33772 158.84 4.69289 157.681 4.69289C156.814 4.69289 156.218 4.94366 155.894 5.4452C155.57 5.94673 155.408 6.66833 155.408 7.61V11.9396H153.747V3.51069H155.064L155.299 4.61612H155.393C155.664 4.18623 156.035 3.86893 156.505 3.66422C156.986 3.45951 157.493 3.35716 158.025 3.35716Z" fill="#ED1C24"/>
<path d="M167.606 3.35716C168.661 3.35716 169.45 3.58746 169.972 4.04805C170.505 4.49841 170.771 5.20978 170.771 6.18215V11.7861H169.596L169.267 10.6346H169.204C168.838 11.0849 168.452 11.4176 168.044 11.6325C167.647 11.8373 167.094 11.9396 166.383 11.9396C165.621 11.9396 164.989 11.74 164.487 11.3408C163.986 10.9314 163.735 10.2968 163.735 9.43703C163.735 8.59772 164.059 7.958 164.706 7.51788C165.354 7.07775 166.41 6.73502 167.758 6.69408H168.666H169.141V6.28962C169.141 5.68573 169 5.26096 168.718 5.01531C168.436 4.75942 168.039 4.63147 167.527 4.63147C167.099 4.63147 166.686 4.69289 166.289 4.81571C165.892 4.93854 165.511 5.08695 165.145 5.26096L164.612 4.07876C165.009 3.87405 165.464 3.70516 165.976 3.5721C166.498 3.42881 167.041 3.35716 167.606 3.35716ZM167.979 7.90233C167.018 7.94327 166.368 8.03989 165.992 8.31625C165.626 8.58237 165.443 8.96108 165.443 9.45238C165.443 9.88227 165.574 10.1945 165.835 10.3889C166.096 10.5834 166.436 10.6806 166.853 10.6806C167.501 10.6806 168.039 10.3082 168.467 9.94992C168.906 9.59168 169.126 9.05432 169.126 8.33784V7.90233H167.979Z" fill="#ED1C24"/>
<path d="M178.319 3.35716C179.301 3.35716 180.054 3.59769 180.576 4.07876C181.098 4.55983 181.359 5.3326 181.359 6.39709V11.9396H179.714V6.62739C179.714 5.33772 179.134 4.69289 177.975 4.69289C177.107 4.69289 176.512 4.94366 176.188 5.4452C175.864 5.94673 175.702 6.66833 175.702 7.61L175.687 11.9396H174.041V3.51069H175.357L175.593 4.61612H175.687C175.958 4.18623 176.329 3.86893 176.799 3.66422C177.28 3.45951 177.786 3.35716 178.319 3.35716Z" fill="#ED1C24"/>
<path d="M188.025 11.9396C186.855 11.9396 185.914 11.6018 185.204 10.9263C184.494 10.2405 184.138 9.16579 184.138 7.70212C184.138 6.67857 184.311 5.8495 184.656 5.2149C185 4.5803 185.476 4.11458 186.082 3.81775C186.688 3.51069 187.377 3.35716 188.15 3.35716C188.62 3.35716 189.059 3.40834 189.466 3.51069C189.884 3.60281 190.229 3.71028 190.501 3.83311L189.999 5.15348C189.707 5.04089 189.393 4.94366 189.059 4.86177C188.735 4.77989 188.427 4.73895 188.134 4.73895C186.609 4.73895 185.847 5.72155 185.847 7.68676C185.847 8.62843 186.035 9.34491 186.411 9.83621C186.787 10.3275 187.34 10.5732 188.072 10.5732C188.542 10.5732 188.955 10.522 189.31 10.4196C189.675 10.3173 190.01 10.1842 190.313 10.0205V11.4329C190.01 11.607 189.681 11.7349 189.325 11.8168C188.97 11.8987 188.537 11.9396 188.025 11.9396Z" fill="#ED1C24"/>
<path d="M196.341 3.35716C197.448 3.35716 198.321 3.69493 198.958 4.37047C199.595 5.03578 199.914 5.94673 199.914 7.10334V7.99383H194.241C194.262 8.84337 194.487 9.49333 194.915 9.94369C195.354 10.394 195.965 10.6192 196.749 10.6192C197.292 10.6192 197.772 10.5732 198.19 10.481C198.619 10.3787 199.465 10.1382 199.914 9.94369L198.642 11.5778C198.642 11.5778 198.399 11.7632 198.222 11.8014C197.793 11.8935 197.281 11.9396 196.686 11.9396C195.861 11.9396 195.134 11.781 194.508 11.4637C193.891 11.1464 193.405 10.6755 193.05 10.0512C192.705 9.41656 192.533 8.63866 192.533 7.71747C192.533 6.78604 192.69 5.99791 193.003 5.35308C193.327 4.70824 193.771 4.21694 194.335 3.87917C194.91 3.53116 195.578 3.35716 196.341 3.35716ZM196.341 4.61612C195.746 4.61612 195.265 4.80548 194.899 5.18419C194.544 5.5629 194.335 6.10027 194.273 6.79628H198.253C198.242 6.15144 198.081 5.62943 197.767 5.23025C197.464 4.82083 196.989 4.61612 196.341 4.61612Z" fill="#ED1C24"/>
<path d="M7.07373 78H6.08545V74.3369H2.05713V78H1.06885V70.1475H2.05713V73.4668H6.08545V70.1475H7.07373V78Z" fill="#DA554A"/>
<path d="M12.7295 78L12.5415 77.1621H12.4985C12.2049 77.5309 11.9113 77.7816 11.6177 77.9141C11.3276 78.043 10.9606 78.1074 10.5166 78.1074C9.93652 78.1074 9.48177 77.9552 9.15234 77.6509C8.82292 77.3465 8.6582 76.9168 8.6582 76.3618C8.6582 75.1659 9.60173 74.5392 11.4888 74.4819L12.4878 74.4443V74.0952C12.4878 73.6476 12.3911 73.3182 12.1978 73.1069C12.0044 72.8921 11.6947 72.7847 11.2686 72.7847C10.957 72.7847 10.6616 72.8312 10.3823 72.9243C10.1066 73.0174 9.847 73.1213 9.60352 73.2358L9.30811 72.5107C9.60531 72.3532 9.92936 72.2297 10.2803 72.1401C10.6312 72.0506 10.9785 72.0059 11.3223 72.0059C12.0348 72.0059 12.5648 72.1634 12.9121 72.4785C13.2594 72.7936 13.4331 73.2949 13.4331 73.9824V78H12.7295ZM10.7368 77.3286C11.2775 77.3286 11.7018 77.1836 12.0098 76.8936C12.3213 76.5999 12.4771 76.1846 12.4771 75.6475V75.1157L11.6069 75.1533C10.9302 75.1784 10.436 75.2858 10.1245 75.4756C9.81657 75.6654 9.6626 75.9644 9.6626 76.3726C9.6626 76.6805 9.7557 76.9168 9.94189 77.0815C10.1317 77.2463 10.3966 77.3286 10.7368 77.3286Z" fill="#DA554A"/>
<path d="M20.5015 80.0464H19.5669V78H15.4634V80.0464H14.5396V77.1836H15.0122C15.4884 76.5212 15.859 75.7549 16.124 74.8848C16.389 74.0111 16.5286 73.0837 16.543 72.1025H19.6421V77.1836H20.5015V80.0464ZM18.7075 77.1836V72.8652H17.397C17.3433 73.6566 17.1893 74.4515 16.9351 75.25C16.6844 76.0449 16.3765 76.6895 16.0112 77.1836H18.7075Z" fill="#DA554A"/>
<path d="M24.1646 78.1074C23.2801 78.1074 22.5854 77.8407 22.0806 77.3071C21.5793 76.77 21.3286 76.0324 21.3286 75.0942C21.3286 74.1489 21.5632 73.397 22.0322 72.8384C22.5013 72.2762 23.1351 71.9951 23.9336 71.9951C24.6748 71.9951 25.2656 72.235 25.7061 72.7148C26.1465 73.1911 26.3667 73.8374 26.3667 74.6538V75.2393H22.3276C22.3455 75.9089 22.5156 76.4173 22.8379 76.7646C23.1602 77.112 23.6167 77.2856 24.2075 77.2856C24.5226 77.2856 24.8216 77.2588 25.1045 77.2051C25.3874 77.1478 25.7186 77.0386 26.0981 76.8774V77.7261C25.7723 77.8657 25.4661 77.9642 25.1797 78.0215C24.8932 78.0788 24.5548 78.1074 24.1646 78.1074ZM23.9229 72.7847C23.4609 72.7847 23.0957 72.9333 22.8271 73.2305C22.5586 73.5277 22.3993 73.9412 22.3491 74.4712H25.3516C25.3444 73.9198 25.2173 73.5008 24.9702 73.2144C24.7231 72.9279 24.374 72.7847 23.9229 72.7847Z" fill="#DA554A"/>
<path d="M30.5938 72.1025H31.4961V74.9653L33.8916 72.1025H34.939L32.5059 74.9653L35.1484 78H34.0474L31.4961 75.0083V78H30.5938V75.0083L28.0425 78H26.9414L29.584 74.9653C28.474 73.6476 27.6629 72.6934 27.1509 72.1025H28.209L30.5938 74.9653V72.1025Z" fill="#DA554A"/>
<path d="M37.082 72.1025V74.5571H40.2832V72.1025H41.25V78H40.2832V75.3735H37.082V78H36.1152V72.1025H37.082Z" fill="#DA554A"/>
<path d="M44.0967 74.5249H45.6274C46.3937 74.5249 46.9595 74.6646 47.3247 74.9438C47.6899 75.2231 47.8726 75.6403 47.8726 76.1953C47.8726 76.7933 47.6792 77.2445 47.2925 77.5488C46.9058 77.8496 46.3364 78 45.5845 78H43.1299V72.1025H44.0967V74.5249ZM46.9165 76.249C46.9165 75.9303 46.8091 75.6976 46.5942 75.5508C46.383 75.4004 46.0195 75.3252 45.5039 75.3252H44.0967V77.2212H45.4932C46.4421 77.2212 46.9165 76.8971 46.9165 76.249ZM49.8169 78H48.8501V72.1025H49.8169V78Z" fill="#DA554A"/>
<path d="M54.1997 78.1074C53.3153 78.1074 52.6206 77.8407 52.1157 77.3071C51.6144 76.77 51.3638 76.0324 51.3638 75.0942C51.3638 74.1489 51.5983 73.397 52.0674 72.8384C52.5365 72.2762 53.1702 71.9951 53.9688 71.9951C54.71 71.9951 55.3008 72.235 55.7412 72.7148C56.1816 73.1911 56.4019 73.8374 56.4019 74.6538V75.2393H52.3628C52.3807 75.9089 52.5508 76.4173 52.873 76.7646C53.1953 77.112 53.6519 77.2856 54.2427 77.2856C54.5578 77.2856 54.8568 77.2588 55.1396 77.2051C55.4225 77.1478 55.7537 77.0386 56.1333 76.8774V77.7261C55.8075 77.8657 55.5013 77.9642 55.2148 78.0215C54.9284 78.0788 54.59 78.1074 54.1997 78.1074ZM53.958 72.7847C53.4961 72.7847 53.1309 72.9333 52.8623 73.2305C52.5938 73.5277 52.4344 73.9412 52.3843 74.4712H55.3867C55.3796 73.9198 55.2524 73.5008 55.0054 73.2144C54.7583 72.9279 54.4092 72.7847 53.958 72.7847Z" fill="#DA554A"/>
<path d="M67.1924 75.0513C67.1924 75.9285 66.9346 76.6357 66.4189 77.1729C65.9069 77.71 65.1925 78.0143 64.2759 78.0859V80.6426H63.3306V78.0859C62.4282 78.0107 61.7174 77.7046 61.1982 77.1675C60.679 76.6304 60.4194 75.925 60.4194 75.0513C60.4194 74.1561 60.6772 73.4453 61.1929 72.9189C61.7085 72.389 62.4318 72.0882 63.3628 72.0166V69.6426H64.2759V72.0166C65.1818 72.1061 65.8944 72.4194 66.4136 72.9565C66.9328 73.4937 67.1924 74.1919 67.1924 75.0513ZM61.4292 75.0513C61.4292 76.4155 62.0737 77.1639 63.3628 77.2964V72.8169C62.6896 72.8849 62.1991 73.1087 61.8911 73.4883C61.5832 73.8643 61.4292 74.3853 61.4292 75.0513ZM66.1934 75.0513C66.1934 73.7085 65.5542 72.9673 64.2759 72.8276V77.2964C65.5542 77.1567 66.1934 76.4084 66.1934 75.0513Z" fill="#DA554A"/>
<path d="M69.6523 72.1025V75.7012L69.6094 76.7432L69.5879 77.0439L72.7461 72.1025H73.9331V78H73.0308V74.5249L73.0469 73.7783L73.0737 73.0693L69.937 78H68.7393V72.1025H69.6523Z" fill="#DA554A"/>
<path d="M76.7852 72.1025V74.5571H79.9863V72.1025H80.9531V78H79.9863V75.3735H76.7852V78H75.8184V72.1025H76.7852Z" fill="#DA554A"/>
<path d="M86.4746 78L86.2866 77.1621H86.2437C85.95 77.5309 85.6564 77.7816 85.3628 77.9141C85.0728 78.043 84.7057 78.1074 84.2617 78.1074C83.6816 78.1074 83.2269 77.9552 82.8975 77.6509C82.568 77.3465 82.4033 76.9168 82.4033 76.3618C82.4033 75.1659 83.3468 74.5392 85.2339 74.4819L86.2329 74.4443V74.0952C86.2329 73.6476 86.1362 73.3182 85.9429 73.1069C85.7495 72.8921 85.4398 72.7847 85.0137 72.7847C84.7021 72.7847 84.4067 72.8312 84.1274 72.9243C83.8517 73.0174 83.5921 73.1213 83.3486 73.2358L83.0532 72.5107C83.3504 72.3532 83.6745 72.2297 84.0254 72.1401C84.3763 72.0506 84.7236 72.0059 85.0674 72.0059C85.7799 72.0059 86.3099 72.1634 86.6572 72.4785C87.0046 72.7936 87.1782 73.2949 87.1782 73.9824V78H86.4746ZM84.4819 77.3286C85.0226 77.3286 85.4469 77.1836 85.7549 76.8936C86.0664 76.5999 86.2222 76.1846 86.2222 75.6475V75.1157L85.3521 75.1533C84.6753 75.1784 84.1812 75.2858 83.8696 75.4756C83.5617 75.6654 83.4077 75.9644 83.4077 76.3726C83.4077 76.6805 83.5008 76.9168 83.687 77.0815C83.8768 77.2463 84.1418 77.3286 84.4819 77.3286Z" fill="#DA554A"/>
<path d="M89.9766 72.1025V74.5571H93.1777V72.1025H94.1445V78H93.1777V75.3735H89.9766V78H89.0098V72.1025H89.9766Z" fill="#DA554A"/>
<path d="M98.3877 78.1074C97.5391 78.1074 96.8784 77.8478 96.4058 77.3286C95.9331 76.8058 95.6968 76.0575 95.6968 75.0835C95.6968 74.0952 95.9349 73.3343 96.4111 72.8008C96.891 72.2637 97.5731 71.9951 98.4575 71.9951C98.744 71.9951 99.0269 72.0256 99.3062 72.0864C99.589 72.1437 99.8218 72.2189 100.004 72.312L99.709 73.1177C99.2113 72.9315 98.7869 72.8384 98.436 72.8384C97.8416 72.8384 97.403 73.0264 97.1201 73.4023C96.8372 73.7747 96.6958 74.3315 96.6958 75.0728C96.6958 75.7853 96.8372 76.3314 97.1201 76.7109C97.403 77.0869 97.8219 77.2749 98.377 77.2749C98.8962 77.2749 99.4064 77.1603 99.9077 76.9312V77.7905C99.4995 78.0018 98.9928 78.1074 98.3877 78.1074Z" fill="#DA554A"/>
<path d="M106.434 75.0405C106.434 76.0037 106.19 76.7557 105.703 77.2964C105.216 77.8371 104.543 78.1074 103.684 78.1074C103.15 78.1074 102.677 77.9839 102.266 77.7368C101.854 77.4862 101.537 77.1281 101.315 76.6626C101.093 76.1971 100.982 75.6564 100.982 75.0405C100.982 74.0809 101.222 73.3343 101.702 72.8008C102.181 72.2637 102.855 71.9951 103.721 71.9951C104.552 71.9951 105.211 72.269 105.698 72.8169C106.188 73.3612 106.434 74.1024 106.434 75.0405ZM101.981 75.0405C101.981 75.7817 102.126 76.3457 102.416 76.7324C102.71 77.1156 103.141 77.3071 103.71 77.3071C104.273 77.3071 104.701 77.1156 104.994 76.7324C105.288 76.3457 105.435 75.7817 105.435 75.0405C105.435 74.2993 105.286 73.7425 104.989 73.3701C104.695 72.9941 104.264 72.8062 103.694 72.8062C102.552 72.8062 101.981 73.5509 101.981 75.0405Z" fill="#DA554A"/>
<path d="M112.82 73.5903C112.82 73.9699 112.712 74.2599 112.498 74.4604C112.283 74.6574 111.977 74.7917 111.579 74.8633V74.9116C112.077 74.9797 112.438 75.1283 112.664 75.3574C112.893 75.583 113.008 75.8874 113.008 76.2705C113.008 76.8291 112.802 77.257 112.39 77.5542C111.982 77.8514 111.393 78 110.623 78H107.97V72.1025H110.612C112.084 72.1025 112.82 72.5985 112.82 73.5903ZM112.041 76.2168C112.041 75.8874 111.912 75.6564 111.654 75.5239C111.396 75.3914 111.019 75.3252 110.521 75.3252H108.937V77.2212H110.542C111.542 77.2212 112.041 76.8864 112.041 76.2168ZM111.875 73.6763C111.875 73.4006 111.767 73.2036 111.552 73.0854C111.341 72.9673 111.021 72.9082 110.591 72.9082H108.937V74.5249H110.414C110.94 74.5249 111.314 74.4604 111.536 74.3315C111.762 74.1991 111.875 73.9806 111.875 73.6763Z" fill="#DA554A"/>
<path d="M115.274 74.5249H116.805C117.571 74.5249 118.137 74.6646 118.502 74.9438C118.868 75.2231 119.05 75.6403 119.05 76.1953C119.05 76.7933 118.857 77.2445 118.47 77.5488C118.083 77.8496 117.514 78 116.762 78H114.308V72.1025H115.274V74.5249ZM118.094 76.249C118.094 75.9303 117.987 75.6976 117.772 75.5508C117.561 75.4004 117.197 75.3252 116.682 75.3252H115.274V77.2212H116.671C117.62 77.2212 118.094 76.8971 118.094 76.249ZM120.995 78H120.028V72.1025H120.995V78Z" fill="#DA554A"/>
<path d="M125.377 78.1074C124.493 78.1074 123.798 77.8407 123.293 77.3071C122.792 76.77 122.542 76.0324 122.542 75.0942C122.542 74.1489 122.776 73.397 123.245 72.8384C123.714 72.2762 124.348 71.9951 125.146 71.9951C125.888 71.9951 126.479 72.235 126.919 72.7148C127.359 73.1911 127.58 73.8374 127.58 74.6538V75.2393H123.541C123.558 75.9089 123.729 76.4173 124.051 76.7646C124.373 77.112 124.83 77.2856 125.42 77.2856C125.736 77.2856 126.035 77.2588 126.317 77.2051C126.6 77.1478 126.931 77.0386 127.311 76.8774V77.7261C126.985 77.8657 126.679 77.9642 126.393 78.0215C126.106 78.0788 125.768 78.1074 125.377 78.1074ZM125.136 72.7847C124.674 72.7847 124.309 72.9333 124.04 73.2305C123.771 73.5277 123.612 73.9412 123.562 74.4712H126.564C126.557 73.9198 126.43 73.5008 126.183 73.2144C125.936 72.9279 125.587 72.7847 125.136 72.7847Z" fill="#DA554A"/>
<path d="M132.849 72.1025V75.7012L132.806 76.7432L132.784 77.0439L135.942 72.1025H137.129V78H136.227V74.5249L136.243 73.7783L136.27 73.0693L133.133 78H131.936V72.1025H132.849Z" fill="#DA554A"/>
<path d="M139.981 72.1025V74.5571H143.183V72.1025H144.149V78H143.183V75.3735H139.981V78H139.015V72.1025H139.981Z" fill="#DA554A"/>
<path d="M148.393 78.1074C147.544 78.1074 146.883 77.8478 146.411 77.3286C145.938 76.8058 145.702 76.0575 145.702 75.0835C145.702 74.0952 145.94 73.3343 146.416 72.8008C146.896 72.2637 147.578 71.9951 148.462 71.9951C148.749 71.9951 149.032 72.0256 149.311 72.0864C149.594 72.1437 149.827 72.2189 150.009 72.312L149.714 73.1177C149.216 72.9315 148.792 72.8384 148.441 72.8384C147.847 72.8384 147.408 73.0264 147.125 73.4023C146.842 73.7747 146.701 74.3315 146.701 75.0728C146.701 75.7853 146.842 76.3314 147.125 76.7109C147.408 77.0869 147.827 77.2749 148.382 77.2749C148.901 77.2749 149.411 77.1603 149.913 76.9312V77.7905C149.504 78.0018 148.998 78.1074 148.393 78.1074Z" fill="#DA554A"/>
<path d="M155.386 72.9189H153.458V78H152.501V72.9189H150.6V72.1025H155.386V72.9189Z" fill="#DA554A"/>
<path d="M159.35 78.1074C158.558 78.1074 157.95 77.8228 157.523 77.2534H157.459L157.48 77.4736C157.509 77.7529 157.523 78.0018 157.523 78.2202V80.6426H156.557V72.1025H157.352L157.48 72.9082H157.523C157.753 72.5859 158.018 72.3532 158.318 72.21C158.619 72.0667 158.966 71.9951 159.36 71.9951C160.127 71.9951 160.721 72.2619 161.144 72.7954C161.57 73.3254 161.783 74.0737 161.783 75.0405C161.783 76.0037 161.57 76.7557 161.144 77.2964C160.717 77.8371 160.119 78.1074 159.35 78.1074ZM159.188 72.8062C158.605 72.8062 158.182 72.9709 157.921 73.3003C157.663 73.6297 157.531 74.1471 157.523 74.8525V75.0405C157.523 75.839 157.656 76.4173 157.921 76.7754C158.186 77.1299 158.616 77.3071 159.21 77.3071C159.704 77.3071 160.089 77.1066 160.365 76.7056C160.644 76.3045 160.784 75.7459 160.784 75.0298C160.784 74.3101 160.644 73.7604 160.365 73.3809C160.089 72.9977 159.697 72.8062 159.188 72.8062Z" fill="#DA554A"/>
<path d="M162.347 72.1025H163.383L164.656 75.4595C164.925 76.1899 165.09 76.7253 165.15 77.0654H165.193C165.226 76.9329 165.299 76.6859 165.414 76.3242C165.528 75.959 165.625 75.6672 165.704 75.4487L166.901 72.1025H167.943L165.403 78.8164C165.156 79.4681 164.862 79.9354 164.522 80.2183C164.182 80.5011 163.761 80.6426 163.26 80.6426C162.991 80.6426 162.724 80.6121 162.459 80.5513V79.7832C162.639 79.8262 162.853 79.8477 163.104 79.8477C163.412 79.8477 163.673 79.7617 163.888 79.5898C164.103 79.4215 164.278 79.1602 164.415 78.8057L164.721 78.0215L162.347 72.1025Z" fill="#DA554A"/>
<path d="M172.015 77.0762C172.122 76.6859 172.258 76.283 172.423 75.8677L173.959 72.1025H175.205V78H174.335V73.1392C174.21 73.5295 174.063 73.9395 173.895 74.3691L172.423 78H171.639L170.167 74.3477C170.095 74.1758 170.024 73.9878 169.952 73.7837C169.884 73.5796 169.816 73.3647 169.748 73.1392V78H168.878V72.1025H170.086L171.574 75.7227C171.707 76.0592 171.854 76.5104 172.015 77.0762Z" fill="#DA554A"/>
<path d="M179.593 78.1074C178.709 78.1074 178.014 77.8407 177.509 77.3071C177.008 76.77 176.757 76.0324 176.757 75.0942C176.757 74.1489 176.992 73.397 177.461 72.8384C177.93 72.2762 178.564 71.9951 179.362 71.9951C180.104 71.9951 180.694 72.235 181.135 72.7148C181.575 73.1911 181.795 73.8374 181.795 74.6538V75.2393H177.756C177.774 75.9089 177.944 76.4173 178.267 76.7646C178.589 77.112 179.045 77.2856 179.636 77.2856C179.951 77.2856 180.25 77.2588 180.533 77.2051C180.816 77.1478 181.147 77.0386 181.527 76.8774V77.7261C181.201 77.8657 180.895 77.9642 180.608 78.0215C180.322 78.0788 179.984 78.1074 179.593 78.1074ZM179.352 72.7847C178.89 72.7847 178.524 72.9333 178.256 73.2305C177.987 73.5277 177.828 73.9412 177.778 74.4712H180.78C180.773 73.9198 180.646 73.5008 180.399 73.2144C180.152 72.9279 179.803 72.7847 179.352 72.7847Z" fill="#DA554A"/>
<path d="M184.261 72.1025V74.5571H187.462V72.1025H188.429V78H187.462V75.3735H184.261V78H183.294V72.1025H184.261Z" fill="#DA554A"/>
<path d="M194.38 72.9189H192.452V78H191.496V72.9189H189.594V72.1025H194.38V72.9189Z" fill="#DA554A"/>
<path d="M196.518 74.5249H198.048C198.815 74.5249 199.38 74.6646 199.746 74.9438C200.111 75.2231 200.293 75.6403 200.293 76.1953C200.293 76.7933 200.1 77.2445 199.713 77.5488C199.327 77.8496 198.757 78 198.005 78H195.551V72.1025H196.518V74.5249ZM199.337 76.249C199.337 75.9303 199.23 75.6976 199.015 75.5508C198.804 75.4004 198.44 75.3252 197.925 75.3252H196.518V77.2212H197.914C198.863 77.2212 199.337 76.8971 199.337 76.249ZM202.238 78H201.271V72.1025H202.238V78Z" fill="#DA554A"/>
</svg>
