<svg width="44" height="22" viewBox="0 0 44 22" fill="none" xmlns="http://www.w3.org/2000/svg">
<path d="M11.9171 0.850115C12.5867 1.52292 12.5842 2.61115 11.9114 3.28077L5.88182 9.28127L42.2812 9.28127C43.2305 9.28127 44 10.0507 44 11C44 11.9493 43.2305 12.7188 42.2812 12.7188L5.88173 12.7188L11.9115 18.7193C12.5843 19.3889 12.5868 20.4771 11.9172 21.1499C11.2475 21.8228 10.1593 21.8253 9.48647 21.1558L0.505657 12.2183C0.505054 12.2177 0.504623 12.2171 0.504108 12.2166C-0.166977 11.547 -0.169125 10.4553 0.504021 9.7834C0.504623 9.78288 0.505054 9.78228 0.505569 9.78177L9.48638 0.844271C10.1591 0.174818 11.2474 0.17714 11.9171 0.850115Z" fill="#B3B7BF"/>
</svg>
