<svg width="44" height="22" viewBox="0 0 44 22" fill="none" xmlns="http://www.w3.org/2000/svg">
<path d="M32.0829 0.850115C31.4133 1.52292 31.4158 2.61115 32.0886 3.28077L38.1182 9.28127L1.71875 9.28127C0.769485 9.28127 1.38394e-07 10.0507 1.27074e-07 11C1.15755e-07 11.9493 0.769485 12.7188 1.71875 12.7188L38.1183 12.7188L32.0885 18.7193C31.4157 19.3889 31.4132 20.4771 32.0828 21.1499C32.7525 21.8228 33.8407 21.8253 34.5135 21.1558L43.4943 12.2183C43.4949 12.2177 43.4954 12.2171 43.4959 12.2166C44.167 11.547 44.1691 10.4553 43.496 9.7834C43.4954 9.78288 43.4949 9.78228 43.4944 9.78177L34.5136 0.844271C33.8409 0.174818 32.7526 0.17714 32.0829 0.850115Z" fill="#B3B7BF"/>
</svg>
