<svg width="27" height="20" viewBox="0 0 27 20" fill="none" xmlns="http://www.w3.org/2000/svg">
<path d="M15.4341 20L14.8925 19.1218C15.2536 17.6846 15.6791 16.1544 16.1691 14.5309C16.6848 12.9075 17.2393 11.2708 17.8324 9.62076C18.4255 7.97073 19.0573 6.334 19.7278 4.71058C20.3983 3.06055 21.0559 1.49035 21.7006 0H27C26.6132 1.62342 26.2264 3.31337 25.8395 5.06986C25.4785 6.82635 25.1304 8.58283 24.7951 10.3393C24.4599 12.0692 24.1504 13.7591 23.8668 15.4092C23.5831 17.0592 23.3381 18.5895 23.1318 20H15.4341ZM0.541547 20L0 19.1218C0.361032 17.6846 0.786533 16.1544 1.2765 14.5309C1.79226 12.9075 2.3467 11.2708 2.93983 9.62076C3.53295 7.97073 4.16476 6.334 4.83524 4.71058C5.50573 3.06055 6.16332 1.49035 6.80802 0H12.1074C11.7206 1.62342 11.3338 3.31337 10.947 5.06986C10.586 6.82635 10.2378 8.58283 9.90258 10.3393C9.56734 12.0692 9.25788 13.7591 8.97421 15.4092C8.69054 17.0592 8.44556 18.5895 8.23925 20H0.541547Z" fill="#FFD42C"/>
</svg>
