<svg width="70" height="70" viewBox="0 0 70 70" fill="none" xmlns="http://www.w3.org/2000/svg">
<rect width="70" height="70" rx="24" fill="#EFF3F8"/>
<path fill-rule="evenodd" clip-rule="evenodd" d="M39.8612 22.1575C40.4612 22.1575 41.0036 22.5151 41.2399 23.0666L45.7114 33.5001L51.2038 33.5001C52.0322 33.5001 52.7038 34.1716 52.7038 35.0001C52.7038 35.8285 52.0322 36.5001 51.2038 36.5001L44.7223 36.5001C44.1223 36.5001 43.58 36.1425 43.3436 35.5909L39.8612 27.4653L31.5177 46.9335C31.2813 47.485 30.739 47.8426 30.139 47.8426C29.5389 47.8426 28.9966 47.485 28.7603 46.9335L24.2888 36.5001L18.7964 36.5001C17.968 36.5001 17.2964 35.8285 17.2964 35.0001C17.2964 34.1716 17.968 33.5001 18.7964 33.5001L25.2779 33.5001C25.8779 33.5001 26.4202 33.8576 26.6566 34.4092L30.139 42.5348L38.4825 23.0666C38.7189 22.5151 39.2612 22.1575 39.8612 22.1575Z" fill="#DA554A"/>
</svg>
