<svg width="70" height="70" viewBox="0 0 70 70" fill="none" xmlns="http://www.w3.org/2000/svg">
<rect width="70" height="70" rx="24" fill="#EFF3F8"/>
<path fill-rule="evenodd" clip-rule="evenodd" d="M36.3257 23.6574V21.8079C38.9922 22.0726 41.4263 23.1274 43.3905 24.7349L42.1645 25.9605C41.6466 26.4781 41.6465 27.3176 42.1641 27.8354C42.6818 28.3532 43.5212 28.3534 44.039 27.8357L45.2654 26.6099C46.8726 28.574 47.9273 31.0079 48.192 33.6742H46.3425C45.6103 33.6742 45.0168 34.2678 45.0168 35C45.0168 35.7322 45.6103 36.3257 46.3425 36.3257H48.192C47.9273 38.992 46.8726 41.4259 45.2654 43.3901L44.039 42.1642C43.5212 41.6466 42.6818 41.6467 42.1641 42.1645C41.6465 42.6824 41.6466 43.5218 42.1645 44.0394L43.3905 45.265C41.1051 47.1354 38.1835 48.2575 34.9999 48.2575C31.8164 48.2575 28.8951 47.1355 26.6096 45.2653L27.8359 44.0394C28.3538 43.5218 28.3539 42.6824 27.8363 42.1645C27.3186 41.6467 26.4792 41.6466 25.9614 42.1642L24.7347 43.3904C23.1273 41.4262 22.0725 38.9922 21.8078 36.3257H23.6573C24.3895 36.3257 24.9831 35.7322 24.9831 35C24.9831 34.2678 24.3895 33.6742 23.6573 33.6742H21.8078C22.0725 31.0078 23.1273 28.5738 24.7346 26.6096L25.9606 27.8356C26.4783 28.3533 27.3178 28.3533 27.8355 27.8356C28.3533 27.3178 28.3533 26.4784 27.8355 25.9607L26.6095 24.7347C28.5738 23.1273 31.0078 22.0726 33.6742 21.8079V23.6574C33.6742 24.3896 34.2677 24.9831 34.9999 24.9831C35.7321 24.9831 36.3257 24.3896 36.3257 23.6574ZM34.9999 19.0909C43.7863 19.0909 50.909 26.2136 50.909 35C50.909 43.7863 43.7863 50.9091 34.9999 50.9091C26.2136 50.9091 19.0908 43.7863 19.0908 35C19.0908 26.2136 26.2136 19.0909 34.9999 19.0909Z" fill="#DA554A"/>
<path fill-rule="evenodd" clip-rule="evenodd" d="M30.5774 38.8074L29.2579 38.9362L29.3533 39.9136L30.3161 40.1072L30.5774 38.8074ZM29.2578 38.9353C29.2578 38.9353 29.2579 38.9362 30.5774 38.8074C30.3161 40.1072 30.317 40.1074 30.317 40.1074L30.318 40.1076L30.3202 40.108L30.3258 40.1091L30.3414 40.1121C30.3538 40.1145 30.3699 40.1175 30.3897 40.121C30.4293 40.128 30.4835 40.1372 30.5511 40.1476C30.6861 40.1683 30.8752 40.1938 31.1075 40.2161C31.5699 40.2605 32.2145 40.2933 32.9504 40.2463C34.3939 40.1542 36.3516 39.7442 37.9136 38.3328C39.0987 37.2618 39.7523 36.0039 39.87 34.7278C39.987 33.4586 39.5616 32.2714 38.7744 31.4002C37.9871 30.529 36.8489 29.9859 35.5744 29.9742C34.2929 29.9624 32.9755 30.4856 31.7903 31.5566C30.2283 32.968 29.6227 34.8744 29.3854 36.3013C29.2644 37.0287 29.2319 37.6733 29.2294 38.1378C29.2281 38.3712 29.2344 38.5619 29.2414 38.6983C29.2449 38.7666 29.2486 38.8215 29.2516 38.8616C29.2531 38.8816 29.2545 38.898 29.2556 38.9105L29.257 38.9263L29.2575 38.932L29.2577 38.9343L29.2578 38.9353ZM31.9002 37.612C31.9176 37.3487 31.9485 37.0518 32.0009 36.7363C32.1911 35.593 32.6364 34.3657 33.568 33.5239C34.342 32.8245 35.0371 32.6209 35.55 32.6256C36.0699 32.6304 36.5079 32.8469 36.807 33.1779C37.1062 33.509 37.2774 33.9666 37.2296 34.4843C37.1825 34.9951 36.9098 35.6661 36.1358 36.3655C35.2042 37.2073 33.9383 37.5265 32.7815 37.6002C32.4624 37.6206 32.1639 37.6214 31.9002 37.612Z" fill="#DA554A"/>
</svg>
