<svg width="70" height="70" viewBox="0 0 70 70" fill="none" xmlns="http://www.w3.org/2000/svg">
<rect width="70" height="70" rx="24" fill="#EFF3F8"/>
<path fill-rule="evenodd" clip-rule="evenodd" d="M33.7529 18.8573C34.1693 18.7659 34.6149 18.6858 34.9748 18.6858C35.3348 18.6858 35.7804 18.7659 36.1968 18.8573C36.6445 18.9555 37.1725 19.0935 37.7438 19.2569C38.8882 19.5841 40.2555 20.0276 41.5953 20.4999C42.9343 20.972 44.2649 21.4796 45.3335 21.9375C45.8663 22.1659 46.3501 22.3887 46.7436 22.5942C47.0886 22.7744 47.5126 23.0149 47.7977 23.3001L47.7985 23.3008C48.1834 23.6864 48.4823 24.1249 48.6495 24.7713C48.7925 25.3243 48.8267 25.9908 48.8327 26.8035C48.8376 27.4703 48.8221 28.328 48.8022 29.4297C48.7972 29.7058 48.792 29.9973 48.7867 30.3049C48.7601 31.8514 48.7321 33.8399 48.7321 36.4243C48.7321 42.2151 45.246 46.0994 41.9653 48.4619C40.3169 49.6491 38.6769 50.4868 37.4531 51.0276C36.8393 51.2989 36.3253 51.4976 35.9607 51.6297C35.7783 51.6958 35.6328 51.7454 35.5306 51.7792C35.4795 51.7961 35.4391 51.8091 35.4102 51.8182L35.3757 51.829L35.3651 51.8323L35.3615 51.8334L35.3601 51.8338C35.3595 51.834 35.359 51.8342 34.9748 50.5653C34.5906 51.8342 34.5901 51.834 34.5895 51.8338L34.5882 51.8334L34.5845 51.8323L34.5739 51.829L34.5394 51.8182C34.5106 51.8091 34.4702 51.7961 34.4191 51.7792C34.3168 51.7454 34.1714 51.6958 33.9889 51.6297C33.6243 51.4976 33.1103 51.2989 32.4965 51.0276C31.2727 50.4868 29.6328 49.6491 27.9843 48.4619C24.7037 46.0994 21.2176 42.2151 21.2176 36.4243C21.2176 33.8399 21.1895 31.8514 21.163 30.3048C21.1577 29.9991 21.1525 29.7093 21.1476 29.4347C21.1277 28.3305 21.1122 27.4712 21.1172 26.8034C21.1232 25.9906 21.1576 25.3239 21.301 24.7706C21.4687 24.1239 21.7682 23.6854 22.1536 23.3001C22.4387 23.0148 22.8625 22.7743 23.2069 22.5944C23.6003 22.3888 24.084 22.1659 24.6168 21.9376C25.6852 21.4796 27.0156 20.972 28.3545 20.4999C29.6942 20.0276 31.0615 19.5841 32.2059 19.2569C32.7772 19.0935 33.3052 18.9555 33.7529 18.8573ZM34.9748 50.5653L34.5906 51.8342C34.8411 51.91 35.1085 51.91 35.359 51.8342L34.9748 50.5653ZM34.9748 49.1665C35.0011 49.1571 35.0286 49.1472 35.0573 49.1369C35.3725 49.0226 35.8297 48.8462 36.3814 48.6024C37.4884 48.1131 38.9564 47.3613 40.4158 46.3103C43.3509 44.1966 46.0805 41.0104 46.0805 36.4243C46.0805 33.8195 46.1088 31.8148 46.1356 30.2593C46.141 29.9402 46.1464 29.6413 46.1515 29.361C46.1712 28.265 46.1859 27.4528 46.1812 26.823C46.1753 26.0112 46.1352 25.6393 46.0825 25.4353C46.0539 25.325 46.0354 25.2879 45.9228 25.175C45.9348 25.187 45.9332 25.1859 45.9118 25.172C45.8701 25.1447 45.7532 25.0683 45.516 24.9444C45.2058 24.7824 44.7899 24.5893 44.2891 24.3747C43.2903 23.9467 42.0175 23.4602 40.7137 23.0006C39.4107 22.5412 38.0957 22.1153 37.0147 21.8062C36.4734 21.6514 36.0029 21.5293 35.6284 21.4472C35.4413 21.4061 35.2877 21.3771 35.1673 21.3589C35.1076 21.3498 35.0607 21.3441 35.0255 21.3408C34.9891 21.3374 34.9737 21.3373 34.9748 21.3373C34.9749 21.3373 34.9749 21.3373 34.9748 21.3373C34.9732 21.3374 34.9574 21.3377 34.9241 21.3408C34.8889 21.3441 34.8421 21.3498 34.7823 21.3589C34.662 21.3771 34.5084 21.4061 34.3212 21.4472C33.9468 21.5293 33.4763 21.6514 32.9349 21.8062C31.854 22.1153 30.5391 22.5412 29.2362 23.0006C27.9325 23.4602 26.6599 23.9467 25.6613 24.3747C25.1606 24.5893 24.7449 24.7824 24.4349 24.9443C24.1986 25.0679 24.0819 25.1441 24.0401 25.1714C24.0185 25.1855 24.017 25.1865 24.0292 25.1742L24.0285 25.175C23.9147 25.2887 23.8963 25.3258 23.8677 25.4361C23.8149 25.6397 23.7747 26.0114 23.7686 26.8232C23.7639 27.4539 23.7785 28.2677 23.7983 29.3664C23.8033 29.6451 23.8087 29.9422 23.8141 30.2593C23.8408 31.8148 23.8691 33.8195 23.8691 36.4243C23.8691 41.0104 26.5988 44.1966 29.5338 46.3103C30.9933 47.3613 32.4612 48.1131 33.5683 48.6024C34.12 48.8462 34.5772 49.0226 34.8924 49.1369C34.9211 49.1472 34.9486 49.1571 34.9748 49.1665Z" fill="#DA554A"/>
<path fill-rule="evenodd" clip-rule="evenodd" d="M41.0834 30.6103C41.6013 31.1279 41.6015 31.9673 41.0839 32.4852L34.7677 38.8046C34.5189 39.0535 34.1815 39.1933 33.8296 39.1932C33.4778 39.1931 33.1404 39.0531 32.8918 38.8041L29.826 35.7335C29.3087 35.2154 29.3094 34.376 29.8275 33.8586C30.3457 33.3413 31.1851 33.342 31.7024 33.8601L33.8305 35.9915L39.2085 30.6108C39.7261 30.0929 40.5655 30.0927 41.0834 30.6103Z" fill="#DA554A"/>
</svg>
